<svg id="Layer_1" data-name="Layer 1" xmlns="http://www.w3.org/2000/svg" viewBox="0 0 400 400"><defs><style>.cls-1{fill:#fff;}</style></defs><title>logolight</title><path class="cls-1" d="M96.93,307.51V6.5h57.61V136.34c9.6-18,33-28,57.19-28,50.1,0,94.35,39.66,94.35,102.28,0,61.37-44.25,101-94.35,101-24.21,0-47.59-10.44-57.19-28.39v24.21Zm104-50.93c24.63,0,45.09-18.37,45.09-47.18,0-28-20.46-46.34-45.09-46.34-23.8,0-45.09,17.12-45.09,46.34C155.8,237.37,176.67,256.57,200.88,256.57Z"/><rect class="cls-1" x="93.91" y="339.98" width="178.66" height="53.52"/></svg>