<?xml version="1.0" standalone="no"?>
<!DOCTYPE svg PUBLIC "-//W3C//DTD SVG 1.1//EN" "http://www.w3.org/Graphics/SVG/1.1/DTD/svg11.dtd" >
<svg xmlns="http://www.w3.org/2000/svg" xmlns:xlink="http://www.w3.org/1999/xlink" version="1.1">
<metadata>
Created by FontForge 20161013 at Sun Jan 11 22:36:15 1998
 By ,,,
Copyright (c) 1990 Adobe Systems Incorporated.  All Rights Reserved.ITC Caslon 224 is a registered trademark of International Typeface Corporation.
</metadata>
<defs>
<font id="CaslonTwoTwentyFourBold" horiz-adv-x="593" >
  <font-face 
    font-family="CaslonTwoTwentyFour"
    font-weight="400"
    font-stretch="normal"
    units-per-em="1000"
    panose-1="0 0 4 0 0 0 0 0 0 0"
    ascent="800"
    descent="-200"
    x-height="456"
    cap-height="680"
    bbox="-167 -218 1143 927"
    underline-thickness="50"
    underline-position="-175"
    unicode-range="U+0020-F002"
  />
<missing-glyph horiz-adv-x="500" 
d="M63 0v781h375v-781h-375zM125 63h250v656h-250v-656z" />
    <glyph glyph-name=".notdef" horiz-adv-x="500" 
d="M63 0v781h375v-781h-375zM125 63h250v656h-250v-656z" />
    <glyph glyph-name=".null" horiz-adv-x="0" 
 />
    <glyph glyph-name="nonmarkingreturn" horiz-adv-x="296" 
 />
    <glyph glyph-name="space" unicode=" " horiz-adv-x="296" 
 />
    <glyph glyph-name="exclam" unicode="!" horiz-adv-x="278" 
d="M58 580q0 114 81 114t81 -114q0 -57 -23 -147q-33 -127 -43 -183q0 -1 -3 -47q-2 -21 -12 -21t-11.5 22t-3.5 46q-10 58 -42 183q-24 90 -24 147zM66 65q0 30 21.5 51.5t51.5 21.5q31 0 52 -21.5t21 -51.5q0 -31 -21 -52t-52 -21q-30 0 -51.5 21t-21.5 52z" />
    <glyph glyph-name="quotedbl" unicode="&#x22;" horiz-adv-x="333" 
d="M62 416v0l-17 188q-2 22 -2 34q0 56 42 56t42 -56q0 -12 -2 -34l-17 -188q-3 -30 -23 -30t-23 30zM224 416v0l-17 188q-2 22 -2 34q0 56 42 56t42 -56q0 -12 -2 -34l-17 -188q-3 -30 -23 -30t-23 30z" />
    <glyph glyph-name="numbersign" unicode="#" 
d="M514 276v-74h-94l-28 -202h-82l29 202h-118l-28 -202h-82l29 202h-90v74h102l17 126h-90v74h101l29 202h81l-28 -202h117l29 202h81l-28 -202h81v-74h-93l-16 -126h81zM368 402h-118l-16 -126h117z" />
    <glyph glyph-name="dollar" unicode="$" 
d="M88 41v251q0 16 12 16t17 -37q8 -59 27 -105l71 159q-111 55 -111 159q0 75 51.5 127.5t135.5 52.5q40 0 70 -11l45 101h28l-49 -110q48 -16 46 -16q10 0 21 15l49 111h29l-52 -118l9 -154q2 -34 2 -40q0 -10 -7 -10t-13 25q-10 43 -32 86l-63 -141q150 -73 150 -189
q0 -87 -66 -139q-61 -48 -152 -48q-55 0 -93 15l-61 -135h-28l64 144q-48 20 -54 20q-5 0 -5 -1l-73 -163h-28zM319 280l-96 -216q34 -20 75 -20q58 0 91 30t33 85q0 78 -103 121zM269 447l83 186q-28 13 -56 13q-47 0 -71.5 -26.5t-24.5 -68.5q0 -71 69 -104zM375 621
l-82 -185q7 -3 28 -11.5t28 -11.5l72 160q-19 29 -46 48zM201 80l94 211q-19 8 -56 24l-80 -179q18 -35 42 -56z" />
    <glyph glyph-name="percent" unicode="%" horiz-adv-x="833" 
d="M139 492q0 -176 74 -176t74 176t-74 176t-74 -176zM43 492q0 92 51 145q47 49 119 49t119 -49q51 -53 51 -145t-51 -145q-47 -49 -119 -49t-119 49q-51 53 -51 145zM449 186q0 92 51 145q47 49 119 49t119 -49q51 -53 51 -145t-51 -145q-47 -49 -119 -49t-119 49
q-51 53 -51 145zM545 186q0 -176 74 -176t74 176t-74 176t-74 -176zM589 686h56l-410 -694h-56z" />
    <glyph glyph-name="ampersand" unicode="&#x26;" horiz-adv-x="815" 
d="M372 406q84 22 84 140q0 58 -31 91t-79 33q-42 0 -68 -30.5t-26 -75.5q0 -53 39 -94q12 -13 81 -64zM504 542q0 -47 -27 -87q-31 -45 -85 -63q106 -69 184 -188q36 62 36 129q0 45 -22 65q-13 12 -40 17q-22 5 -22 12q0 11 18 11q17 0 50.5 -1t50.5 -1q15 0 52 1t63 1
q18 0 18 -8q0 -10 -21 -15q-29 -7 -48 -22q-29 -24 -56 -79q-43 -90 -67 -130q73 -146 154 -146q59 0 68 71q2 15 13 15t11 -14q0 -56 -50 -92q-46 -34 -113 -34q-58 0 -105 31q-26 17 -70 62q-114 -93 -233 -93q-92 0 -153 52q-66 56 -66 152q0 61 42.5 112t113.5 78
q-38 37 -53 68.5t-15 75.5q0 67 54 118q58 54 147 54q79 0 127 -47q44 -44 44 -105zM170 253q0 -107 61 -166q50 -49 115 -49q73 0 137 56q-60 93 -112 146q-59 60 -155 122q-46 -30 -46 -109z" />
    <glyph glyph-name="quotesingle" unicode="'" horiz-adv-x="222" 
d="M88 416v0l-17 188q-2 22 -2 34q0 56 42 56t42 -56q0 -12 -2 -34l-17 -188q-3 -30 -23 -30t-23 30z" />
    <glyph glyph-name="parenleft" unicode="(" horiz-adv-x="407" 
d="M72 259q0 110 46 216q43 96 112 163q43 41 97 70q42 22 57 22q8 0 8 -10l-45 -26q-51 -29 -80 -77q-69 -114 -69 -358t69 -358q29 -48 80 -77l45 -26q0 -10 -8 -10q-15 0 -57 22q-54 29 -97 70q-69 67 -112 163q-46 106 -46 216z" />
    <glyph glyph-name="parenright" unicode=")" horiz-adv-x="407" 
d="M335 259q0 -110 -46 -216q-43 -96 -112 -163q-43 -41 -97 -70q-42 -22 -57 -22q-8 0 -8 10l45 26q51 29 80 77q69 114 69 358t-69 358q-29 48 -80 77l-45 26q0 10 8 10q15 0 57 -22q54 -29 97 -70q69 -67 112 -163q46 -106 46 -216z" />
    <glyph glyph-name="asterisk" unicode="*" horiz-adv-x="500" 
d="M252 540h-2q-3 7 -29 61q-15 31 -15 46q0 47 45 47q19 0 32 -12.5t13 -33.5q0 -16 -15 -48q-27 -55 -29 -60zM278 522v2q26 33 51.5 66.5t53.5 33.5q20 0 31.5 -13.5t11.5 -32.5q0 -25 -22 -39q-26 -17 -126 -17zM222 524v-2q-100 0 -126 17q-22 14 -22 39
q0 19 11.5 32.5t31.5 13.5q28 0 54 -33.5t51 -66.5zM278 484v2q100 0 126 -17q22 -14 22 -39q0 -19 -11.5 -32.5t-31.5 -13.5q-28 0 -53.5 33.5t-51.5 66.5zM250 470h2q2 -5 29 -60q15 -32 15 -48q0 -21 -13 -33.5t-32 -12.5q-45 0 -45 47q0 15 15 46q26 54 29 61zM222 486
v-2q-25 -33 -51 -66.5t-54 -33.5q-20 0 -31.5 13.5t-11.5 32.5q0 25 22 39q26 17 126 17z" />
    <glyph glyph-name="plus" unicode="+" horiz-adv-x="600" 
d="M249 278v176h102v-176h176v-102h-176v-176h-102v176h-176v102h176z" />
    <glyph glyph-name="comma" unicode="," horiz-adv-x="296" 
d="M235 32q0 -64 -50 -118q-42 -44 -65 -44q-6 0 -6 6q0 4 9 10q15 11 27 23q36 36 37 89q-42 -6 -41 -6q-71 0 -71 71q0 34 20 54.5t53 20.5q36 0 61.5 -29t25.5 -77z" />
    <glyph glyph-name="hyphen" unicode="-" horiz-adv-x="333" 
d="M42 179v96h248v-96h-248z" />
    <glyph glyph-name="hyphen" unicode="&#x2010;" horiz-adv-x="333" 
d="M42 179v96h248v-96h-248z" />
    <glyph glyph-name="period" unicode="." horiz-adv-x="296" 
d="M75 65q0 30 21.5 51.5t51.5 21.5q31 0 52 -21.5t21 -51.5q0 -31 -21 -52t-52 -21q-30 0 -51.5 21t-21.5 52z" />
    <glyph glyph-name="slash" unicode="/" horiz-adv-x="278" 
d="M74 -16h-102l232 710h102z" />
    <glyph glyph-name="zero" unicode="0" 
d="M169 339q0 -329 127 -329t127 329t-127 329t-127 -329zM31 339q0 144 77 245.5t188 101.5t188 -101.5t77 -245.5t-77 -245.5t-188 -101.5t-188 101.5t-77 245.5z" />
    <glyph glyph-name="one" unicode="1" 
d="M384 664v-569q0 -63 83 -67q44 -2 54.5 -4.5t10.5 -13.5q0 -12 -16 -12h-201q-132 -2 -205 -2q-16 0 -16 12q0 11 12 14q9 2 53 4q83 4 83 67v467q0 28 -24 28h-136q-14 0 -14 11q0 9 21 11q42 4 85 8q77 10 139 40q57 28 58 28q13 0 13 -22z" />
    <glyph glyph-name="two" unicode="2" 
d="M527 165l-44 -165h-427q1 92 85 171q79 62 157 125q84 74 84 153q0 68 -41.5 111.5t-107.5 43.5q-75 0 -124 -54q-20 -22 -36 -56q-12 -24 -18 -24q-7 0 -7 8q0 21 19 62q28 59 76 96q65 50 159 50q99 0 160.5 -58t61.5 -143q0 -91 -75 -150q-24 -18 -162 -89
q-107 -56 -151 -118h248q77 0 113 34q12 11 20 28q5 12 10 12q7 0 7 -7q0 -4 -7 -30z" />
    <glyph glyph-name="three" unicode="3" 
d="M480 521q0 -57 -52 -109q110 -79 110 -181q0 -100 -82.5 -169.5t-193.5 -69.5q-103 0 -168.5 41t-65.5 96q0 30 19.5 52.5t49.5 22.5q72 0 75 -97t88 -97q62 0 101 44t39 120q0 61 -31 106q-29 41 -76 57q-18 6 -55 8q-26 1 -26 9q0 11 26 11q37 2 63 15q53 28 53 118
q0 55 -35 85.5t-96 30.5q-47 0 -79 -21q-20 -13 -38 -38q-15 -21 -20 -21q-8 0 -8 9q0 33 51 81q65 62 155 62q80 0 135 -42q61 -46 61 -123z" />
    <glyph glyph-name="four" unicode="4" 
d="M309 240v306h-2l-248 -306h250zM451 678v-438h122l-24 -48h-98v-104q0 -39 24 -53q11 -6 44 -10q24 -3 24 -15t-18 -12q-28 0 -76.5 1t-68.5 1q-19 0 -67.5 -1t-77.5 -1q-18 0 -18 12t24 15q33 4 44 10q24 14 24 53v104h-278l-12 36l368 450h64z" />
    <glyph glyph-name="five" unicode="5" 
d="M157 678h320q26 0 39 18t14 18q9 0 9 -7q0 -1 -9 -27l-45 -130h-324l-14 -96q32 8 77 8q144 0 235 -79q82 -72 82 -167q0 -85 -63 -149q-75 -75 -203 -75q-96 0 -160 40t-64 98q0 27 19 45.5t46 18.5q40 0 58 -25q14 -21 27 -82q9 -45 27.5 -61t58.5 -16q51 0 83.5 37.5
t32.5 92.5q0 89 -65 145.5t-177 56.5q-5 0 -64 -8q25 95 60 344z" />
    <glyph glyph-name="six" unicode="6" 
d="M566 204q0 -94 -65 -151q-69 -61 -192 -61q-121 0 -194 85q-71 82 -71 210q0 130 96 232q73 77 188 128q88 39 126 39q6 0 6 -8q0 1 -55 -31q-67 -39 -114 -93q-68 -79 -93 -188q66 42 134 42q114 0 178 -64q56 -57 56 -140zM428 198q0 96 -38 144q-32 42 -86 42
q-34 0 -68.5 -18t-44 -37t-9.5 -88q0 -231 131 -231q115 0 115 188z" />
    <glyph glyph-name="seven" unicode="7" 
d="M534 678l18 -42q-180 -221 -180 -644q-41 16 -95 16t-95 -16q13 146 102 297q56 95 190 261h-320q-30 0 -51 -13q-13 -9 -26 -26q-10 -13 -14 -13q-7 0 -7 7q0 3 10 30l52 143h416z" />
    <glyph glyph-name="eight" unicode="8" 
d="M462 512q0 76 -39 116t-107 40q-53 0 -85.5 -32t-32.5 -85q0 -65 85 -110q29 -15 137 -51q42 46 42 122zM44 179q0 45 27 89q30 48 84 77q-83 62 -83 147q0 82 69.5 138t173.5 56q86 0 143.5 -45.5t57.5 -111.5q0 -92 -80 -147q56 -19 88 -68.5t32 -114.5q0 -88 -77 -147
q-80 -60 -201 -60q-104 0 -169 54t-65 133zM110 194q0 -83 44 -132q45 -52 124 -52q72 0 114 41q38 38 38 98q0 45 -24 74q-30 36 -105 63q-31 12 -62 25q-54 21 -61 21q-18 0 -41 -37q-27 -44 -27 -101z" />
    <glyph glyph-name="nine" unicode="9" 
d="M27 474q0 94 65 151q69 61 192 61q121 0 193 -83.5t72 -211.5q0 -130 -96 -232q-73 -77 -188 -128q-88 -39 -126 -39q-6 0 -6 8q0 -1 55 31q67 39 114 93q68 79 93 188q-66 -42 -134 -42q-114 0 -178 65q-56 56 -56 139zM165 480q0 -96 38 -144q32 -42 86 -42q34 0 70 19
q33 17 42.5 36t9.5 88q0 231 -131 231q-115 0 -115 -188z" />
    <glyph glyph-name="colon" unicode=":" horiz-adv-x="296" 
d="M75 65q0 30 21.5 51.5t51.5 21.5q31 0 52 -21.5t21 -51.5q0 -31 -21 -52t-52 -21q-30 0 -51.5 21t-21.5 52zM75 341q0 30 21.5 51.5t51.5 21.5q31 0 52 -21.5t21 -51.5q0 -31 -21 -52t-52 -21q-30 0 -51.5 21t-21.5 52z" />
    <glyph glyph-name="semicolon" unicode=";" horiz-adv-x="296" 
d="M235 32q0 -64 -50 -118q-42 -44 -65 -44q-6 0 -6 6q0 4 9 10q15 11 27 23q36 36 37 89q-42 -6 -41 -6q-71 0 -71 71q0 34 20 54.5t53 20.5q36 0 61.5 -29t25.5 -77zM75 341q0 30 21.5 51.5t51.5 21.5q31 0 52 -21.5t21 -51.5q0 -31 -21 -52t-52 -21q-30 0 -51.5 21
t-21.5 52z" />
    <glyph glyph-name="less" unicode="&#x3c;" horiz-adv-x="600" 
d="M527 93v-103l-454 200v74l454 200v-102l-319 -135z" />
    <glyph glyph-name="equal" unicode="=" horiz-adv-x="600" 
d="M527 378v-102h-454v102h454zM527 178v-102h-454v102h454z" />
    <glyph glyph-name="greater" unicode="&#x3e;" horiz-adv-x="600" 
d="M73 -10v103l319 134l-319 135v102l454 -200v-74z" />
    <glyph glyph-name="question" unicode="?" horiz-adv-x="500" 
d="M226 188l-30 -6q-7 70 -58 218l28 16q31 -38 88 -38q63 0 105 40q47 45 47 120q0 53 -33 86.5t-89 33.5q-54 0 -82 -41q-18 -39 -37 -78q-23 -41 -64 -41q-24 0 -40.5 16.5t-16.5 42.5q0 56 53.5 96.5t131.5 40.5q115 0 183 -74q60 -66 60 -161q0 -76 -47 -131
q-59 -68 -167 -68h-32v-72zM139 65q0 30 21.5 51.5t51.5 21.5q31 0 52 -21.5t21 -51.5q0 -31 -21 -52t-52 -21q-30 0 -51.5 21t-21.5 52z" />
    <glyph glyph-name="at" unicode="@" horiz-adv-x="800" 
d="M344 290q0 -39 14 -61.5t34 -22.5q39 0 68 47q34 52 44 149q0 63 -45 63q-38 0 -75 -53q-40 -57 -40 -122zM527 476l11 35h75l-58 -239q-5 -21 -5 -32q0 -48 32 -48q44 0 76 67q29 62 29 131q0 90 -71 160q-78 76 -197 76q-100 0 -176 -74q-86 -84 -86 -222
q0 -122 83 -202q78 -76 189 -76q108 0 204 49l15 -61q-112 -56 -218 -56q-184 0 -294 118q-93 99 -93 222q0 162 112 268q108 102 264 102q143 0 240.5 -86.5t97.5 -216.5q0 -88 -49 -162q-56 -83 -142 -83q-68 0 -93 63h-2q-55 -60 -112 -63q-48 -2 -76.5 34t-28.5 93
q0 81 50 158q60 94 153 94q31 0 48 -15q6 -6 22 -34z" />
    <glyph glyph-name="A" unicode="A" horiz-adv-x="704" 
d="M196 274h212l-110 269zM418 256h-228l-28 -76q-14 -41 -14 -73q0 -40 22 -62q13 -14 39 -25q22 -9 22 -14q0 -8 -9 -8q-18 0 -56 1t-58 1q-19 0 -58 -1t-59 -1q-11 0 -11 9t21 14q81 18 149 194l127 329q7 18 7 29q0 12 -15 22t-15 12q0 3 16 13q24 16 49.5 42t39.5 48
q8 12 12 12q5 0 15 -25l253 -616q14 -35 37 -51q12 -9 33 -14q15 -4 15 -10q0 -8 -10 -8q-23 0 -70 1t-71 1t-71.5 -1t-69.5 -1q-12 0 -12 10q0 7 18 10q25 5 34 9q18 10 18 34q0 20 -16 59z" />
    <glyph glyph-name="B" unicode="B" horiz-adv-x="667" 
d="M112 80v518q0 35 -22 47q-11 6 -42 9q-22 3 -22 13q0 13 20 13q27 0 73.5 -1t65.5 -1q32 0 90.5 1t86.5 1q114 0 179.5 -44.5t65.5 -120.5q0 -70 -51 -107q-53 -40 -174 -51v-2q259 -7 259 -170q0 -89 -49 -134q-59 -53 -196 -53q-21 0 -93 1t-118 1q-19 0 -65.5 -1
t-73.5 -1q-20 0 -20 13q0 10 22 13q31 3 42 9q22 12 22 47zM258 344v-256q0 -66 85 -66q146 0 146 158q0 164 -159 164h-72zM258 656v-288h60q68 0 105.5 37.5t37.5 101.5q0 72 -38 110.5t-104 38.5h-61z" />
    <glyph glyph-name="C" unicode="C" horiz-adv-x="704" 
d="M636 668v-252q0 -20 -11 -20q-8 0 -13 25q-10 44 -26 82q-71 167 -198 167q-196 0 -196 -331t202 -331q69 0 132 62q55 53 79 124q9 26 15 61q2 17 11 17t9 -16v-263q0 -17 -12 -17q-6 0 -13.5 28t-35.5 28q-11 0 -74 -24t-129 -24q-154 0 -251 101t-97 254
q0 150 102 252.5t246 102.5q66 0 130 -28t78 -28q22 0 27 22t13 22q12 0 12 -14z" />
    <glyph glyph-name="D" unicode="D" horiz-adv-x="759" 
d="M112 80v518q0 35 -22 47q-11 6 -42 9q-22 3 -22 13q0 13 20 13q27 0 73.5 -1t65.5 -1q28 0 83 1t87 1q174 0 278 -101q98 -95 98 -241q0 -158 -87.5 -249t-230.5 -91q-30 0 -106 1t-122 1q-19 0 -65.5 -1t-73.5 -1q-20 0 -20 13q0 10 22 13q31 3 42 9q22 12 22 47z
M258 656v-533q0 -101 118 -101q92 0 146 74q57 79 57 228q0 160 -62.5 246t-172.5 86h-86z" />
    <glyph glyph-name="E" unicode="E" horiz-adv-x="667" 
d="M112 80v518q0 35 -22 47q-11 6 -42 9q-22 3 -22 13q0 13 20 13q27 0 73.5 -1t65.5 -1q124 0 360 2l50 -191q6 -23 6 -26q0 -8 -10 -8q-5 0 -12 17q-16 33 -35 65q-72 119 -232 119h-54v-288h25q52 0 87 35t38 89q1 25 14 25q10 0 10 -14v-306q0 -14 -10 -14q-13 0 -14 25
q-3 65 -37 100.5t-88 35.5h-25v-252q0 -36 18 -53t64 -17q107 0 182 68q62 56 89 142q9 28 16 28q10 0 10 -11q0 -9 -4 -29l-44 -222l-404 2q-19 0 -65.5 -1t-73.5 -1q-20 0 -20 13q0 10 22 13q31 3 42 9q22 12 22 47z" />
    <glyph glyph-name="F" unicode="F" horiz-adv-x="611" 
d="M112 80v518q0 35 -22 47q-11 6 -42 9q-22 3 -22 13q0 13 20 13q27 0 73.5 -1t65.5 -1q123 0 361 2l50 -191q6 -23 6 -26q0 -8 -10 -8q-5 0 -12 17q-16 33 -35 65q-72 119 -232 119h-55v-288h25q52 0 87 35t38 89q1 25 14 25q10 0 10 -14v-306q0 -14 -10 -14q-13 0 -14 25
q-3 65 -37 100.5t-88 35.5h-25v-264q0 -35 22 -47q11 -6 42 -9q22 -3 22 -13q0 -13 -20 -13q-25 0 -74 1q-44 1 -65 1q-106 -1 -138 2q-21 2 -21 9q0 10 22 13q31 3 42 9q22 12 22 47z" />
    <glyph glyph-name="G" unicode="G" horiz-adv-x="778" 
d="M666 0l-30 58q-118 -74 -234 -74q-158 0 -266 104t-108 251t107.5 251t263.5 104q63 0 135 -26t77 -26q24 0 29.5 23t11.5 23q12 0 12 -11v-265q0 -12 -9 -12q-8 0 -11 18q-6 35 -17 66q-67 186 -225 186q-87 0 -142 -72q-68 -87 -68 -259t68 -259q55 -72 142 -72
q67 0 111.5 38t44.5 106v56q0 41 -22 57q-12 9 -42 13q-22 3 -22 13q0 13 20 13q27 0 73 -1t62 -1t62 1t73 1q20 0 20 -13q0 -10 -22 -13q-31 -3 -42 -9q-22 -12 -22 -47v-222h-30z" />
    <glyph glyph-name="H" unicode="H" horiz-adv-x="778" 
d="M112 80v518q0 35 -22 47q-11 6 -42 9q-22 3 -22 13q0 13 20 13q27 0 73.5 -1t65.5 -1t65.5 1t73.5 1q20 0 20 -13q0 -10 -22 -13q-31 -3 -42 -9q-22 -12 -22 -47v-230h262v230q0 35 -22 47q-11 6 -42 9q-22 3 -22 13q0 13 20 13q27 0 73.5 -1t65.5 -1t65.5 1t73.5 1
q20 0 20 -13q0 -10 -22 -13q-31 -3 -42 -9q-22 -12 -22 -47v-518q0 -35 22 -47q11 -6 42 -9q22 -3 22 -13q0 -13 -20 -13q-27 0 -73.5 1t-65.5 1t-65.5 -1t-73.5 -1q-20 0 -20 13q0 10 22 13q31 3 42 9q22 12 22 47v264h-262v-264q0 -35 22 -47q11 -6 42 -9q22 -3 22 -13
q0 -13 -20 -13q-27 0 -73.5 1t-65.5 1t-65.5 -1t-73.5 -1q-20 0 -20 13q0 10 22 13q31 3 42 9q22 12 22 47z" />
    <glyph glyph-name="I" unicode="I" horiz-adv-x="370" 
d="M112 80v518q0 35 -22 47q-11 6 -42 9q-22 3 -22 13q0 13 20 13q27 0 73.5 -1t65.5 -1t65.5 1t73.5 1q20 0 20 -13q0 -10 -22 -13q-31 -3 -42 -9q-22 -12 -22 -47v-518q0 -35 22 -47q11 -6 42 -9q22 -3 22 -13q0 -13 -20 -13q-27 0 -73.5 1t-65.5 1t-65.5 -1t-73.5 -1
q-20 0 -20 13q0 10 22 13q31 3 42 9q22 12 22 47z" />
    <glyph glyph-name="J" unicode="J" horiz-adv-x="481" 
d="M244 92v506q0 35 -22 47q-11 6 -42 9q-22 3 -22 13q0 13 20 13q27 0 73.5 -1t65.5 -1t65.5 1t73.5 1q20 0 20 -13q0 -10 -22 -13q-31 -3 -42 -9q-22 -12 -22 -47v-422q0 -89 -62 -140.5t-158 -51.5q-84 0 -136 36q-48 32 -48 76q0 32 20.5 55t52.5 23q69 0 69 -63
q0 -13 -6 -33t-6 -31q0 -45 60 -45q68 0 68 90z" />
    <glyph glyph-name="K" unicode="K" horiz-adv-x="722" 
d="M266 269v-189q0 -35 22 -47q11 -6 42 -9q22 -3 22 -13q0 -13 -20 -13q-27 0 -73.5 1t-65.5 1t-65.5 -1t-73.5 -1q-20 0 -20 13q0 10 22 13q31 3 42 9q22 12 22 47v518q0 35 -22 47q-11 6 -42 9q-22 3 -22 13q0 13 20 13q27 0 73.5 -1t65.5 -1t65.5 1t73.5 1q20 0 20 -13
q0 -10 -22 -13q-31 -3 -42 -9q-22 -12 -22 -47v-294l188 218q52 60 52 91q0 26 -13 36q-7 5 -26 9q-13 3 -13 10q0 12 15 12q16 0 46.5 -1t45.5 -1t45.5 1t45.5 1q30 0 30 -10q0 -7 -17 -10q-27 -6 -47 -17q-37 -19 -74 -61l-110 -124l200 -369q19 -35 46 -50q12 -8 39 -15
q17 -4 17 -13q0 -13 -18 -13q-4 0 -66 1t-138 1l-180 346z" />
    <glyph glyph-name="L" unicode="L" horiz-adv-x="630" 
d="M112 80v518q0 35 -22 47q-11 6 -42 9q-22 3 -22 13q0 13 20 13q27 0 73.5 -1t65.5 -1t65.5 1t73.5 1q20 0 20 -13q0 -10 -22 -13q-31 -3 -42 -9q-22 -12 -22 -47v-506q0 -36 18 -53t64 -17q85 0 152 61q63 58 92 149q9 28 16 28q10 0 10 -11q0 -9 -4 -29l-44 -222
q-210 2 -377 2q-19 0 -65.5 -1t-73.5 -1q-20 0 -20 13q0 10 22 13q31 3 42 9q22 12 22 47z" />
    <glyph glyph-name="M" unicode="M" horiz-adv-x="889" 
d="M246 678l200 -476l194 476h65q19 0 65.5 1t73.5 1q20 0 20 -13q0 -10 -22 -13q-31 -3 -42 -9q-22 -12 -22 -47v-518q0 -35 22 -47q11 -6 42 -9q22 -3 22 -13q0 -13 -20 -13q-27 0 -73.5 1t-65.5 1t-65.5 -1t-73.5 -1q-20 0 -20 13q0 10 22 13q31 3 42 9q22 12 22 47v520
h-2l-240 -597q-3 -3 -7 -3q-5 0 -8 3l-237 571h-2v-408q0 -103 53 -131q17 -9 41 -13q14 -2 14 -11q0 -13 -22 -13q-11 0 -43.5 1t-54.5 1t-54.5 -1t-43.5 -1q-22 0 -22 13q0 9 14 11q24 4 41 13q53 28 53 131v441q-28 44 -83 49q-18 2 -19 12q0 12 13 12q19 0 56 -1t55 -1
h112z" />
    <glyph glyph-name="N" unicode="N" horiz-adv-x="722" 
d="M135 560v-406q0 -99 62 -126q11 -5 37 -8q17 -1 17 -11q0 -11 -14 -11q-16 0 -54.5 1t-59.5 1t-59.5 -1t-54.5 -1q-14 0 -14 11q0 10 17 11q26 3 37 8q62 27 62 126v437q-40 58 -93 65q-23 3 -23 13q0 11 12 11q17 0 53 -1t55 -1h112l358 -450h2v296q0 99 -62 126
q-11 5 -37 8q-17 1 -17 11q0 11 14 11q16 0 54.5 -1t59.5 -1t59.5 1t54.5 1q14 0 14 -11q0 -10 -17 -11q-26 -3 -37 -8q-62 -27 -62 -126v-515q0 -33 -9 -33q-6 0 -25 24l-440 560h-2z" />
    <glyph glyph-name="O" unicode="O" horiz-adv-x="796" 
d="M192 339q0 -157 55.5 -244t150.5 -87t150.5 87t55.5 244t-55.5 244t-150.5 87t-150.5 -87t-55.5 -244zM28 339q0 145 102 248q106 107 268 107t268 -107q102 -103 102 -248t-102 -248q-106 -107 -268 -107t-268 107q-102 103 -102 248z" />
    <glyph glyph-name="P" unicode="P" horiz-adv-x="630" 
d="M258 302v-222q0 -35 22 -47q11 -6 42 -9q22 -3 22 -13q0 -13 -20 -13q-27 0 -73.5 1t-65.5 1t-65.5 -1t-73.5 -1q-20 0 -20 13q0 10 22 13q31 3 42 9q22 12 22 47v518q0 35 -22 47q-11 6 -42 9q-22 3 -22 13q0 13 20 13q27 0 73.5 -1t65.5 -1q29 0 77 1t69 1
q134 0 210 -56q69 -51 69 -132q0 -89 -67 -138q-71 -52 -210 -52h-75zM258 656v-330h52q79 0 116.5 39.5t37.5 127.5q0 163 -154 163h-52z" />
    <glyph glyph-name="Q" unicode="Q" horiz-adv-x="796" 
d="M192 339q0 -157 55.5 -244t150.5 -87t150.5 87t55.5 244t-55.5 244t-150.5 87t-150.5 -87t-55.5 -244zM216 28v2q-87 45 -137.5 128.5t-50.5 180.5q0 145 102 248q106 107 268 107t268 -107q102 -103 102 -248t-102 -248q-106 -107 -268 -107q-11 0 -13 1l-2 -2
q31 -8 141 -55q85 -36 131 -36q60 0 92 42q5 6 11 20q4 9 9 9q8 0 8 -11q0 -33 -40 -74q-61 -64 -178 -64q-60 0 -132 44q-61 41 -121 82q-70 44 -125 44q-40 0 -68 -30q-5 -6 -14 -22q-6 -10 -12 -10q-9 0 -9 10q0 23 34 53q43 38 106 43z" />
    <glyph glyph-name="R" unicode="R" horiz-adv-x="704" 
d="M516 0l-121 253q-32 67 -129 67v-240q0 -35 22 -47q11 -6 42 -9q22 -3 22 -13q0 -13 -20 -13q-27 0 -73.5 1t-65.5 1t-65.5 -1t-73.5 -1q-20 0 -20 13q0 10 22 13q31 3 42 9q22 12 22 47v518q0 35 -22 47q-11 6 -42 9q-22 3 -22 13q0 13 20 13q27 0 73.5 -1t65.5 -1
q23 0 73.5 1t85.5 1q125 0 195 -51q67 -48 67 -127q0 -148 -258 -176v-2q81 0 128 -22.5t76 -78.5l75 -145q18 -34 46 -47q12 -5 42 -9q19 -3 19 -13q0 -11 -10 -11q-18 0 -54 1t-54 1h-108zM266 656v-318h39q163 0 163 162q0 156 -139 156h-63z" />
    <glyph glyph-name="S" unicode="S" 
d="M52 5v278q0 15 10 15q7 0 14 -36q48 -254 220 -254q75 0 117.5 35t42.5 94q0 83 -104 126q-96 34 -192 69q-104 51 -104 156q0 88 65 147t159 59q55 0 110.5 -20t61.5 -20q20 0 25.5 14t12.5 14q10 0 12 -18l18 -189q3 -32 3 -33q0 -10 -8 -10q-6 0 -11 15q-15 44 -16 46
q-36 90 -79 130q-51 47 -130 47q-127 0 -127 -107q0 -65 105 -102q190 -66 196 -69q105 -57 105 -173q0 -100 -75 -167.5t-188 -67.5q-57 0 -115 23t-70 23q-22 0 -33 -17t-17 -17q-8 0 -8 9z" />
    <glyph glyph-name="T" unicode="T" horiz-adv-x="630" 
d="M242 100v554q-87 -24 -143 -78q-36 -35 -62 -88q-21 -42 -26 -42q-9 0 -9 10q0 8 5 36l33 183q3 19 11 19q5 0 14 -7q15 -9 26 -9h448q11 0 26 9q9 7 14 7q8 0 11 -19l33 -183q5 -28 5 -36q0 -10 -9 -10q-5 0 -26 42q-26 53 -62 88q-56 54 -143 78v-554q0 -45 22 -63
q18 -15 58 -15q18 0 18 -13q0 -11 -16 -11q-30 0 -81.5 1t-73.5 1t-73.5 -1t-81.5 -1q-16 0 -16 11q0 13 18 13q40 0 58 15q22 18 22 63z" />
    <glyph glyph-name="U" unicode="U" horiz-adv-x="704" 
d="M601 504v-297q0 -108 -66.5 -165.5t-175.5 -57.5q-116 0 -186 48.5t-70 127.5v438q0 35 -22 47q-11 6 -42 9q-22 3 -22 13q0 13 20 13q27 0 73.5 -1t65.5 -1t65.5 1t73.5 1q20 0 20 -13q0 -10 -22 -13q-31 -3 -42 -9q-22 -12 -22 -47v-438q0 -61 44 -103.5t107 -42.5
q80 0 128.5 49.5t48.5 137.5v303q0 124 -78 150q-30 10 -30 15q0 11 14 11q11 0 47.5 -1t58.5 -1t58.5 1t47.5 1q14 0 14 -11q0 -5 -30 -15q-78 -26 -78 -150z" />
    <glyph glyph-name="V" unicode="V" horiz-adv-x="685" 
d="M404 184l131 321q13 32 13 66q0 42 -22 63q-13 11 -42 20q-22 7 -22 15q0 11 17 11t50.5 -1t50.5 -1q16 0 49.5 1t50.5 1q32 0 32 -13q0 -9 -22 -15q-32 -8 -52 -25q-36 -29 -62 -92l-217 -528q-9 -23 -16 -23t-16 23l-241 584q-15 37 -39 53q-14 10 -37 15q-16 4 -16 11
q0 10 14 10q26 0 73 -1t69 -1q23 0 68.5 1t67.5 1q24 0 24 -11q0 -8 -18 -10q-26 -3 -34 -7q-18 -8 -18 -31q0 -16 8 -37z" />
    <glyph glyph-name="W" unicode="W" horiz-adv-x="963" 
d="M494 438l-161 -431q-9 -23 -16 -23t-16 23l-222 599q-11 29 -33 41q-8 4 -34 9q-16 3 -16 14q0 10 14 10q24 0 67 -1t63 -1q18 0 64 1t78 1q16 0 16 -10q0 -9 -33 -16t-33 -37q0 -11 9 -36l139 -381l104 275l-45 123q-12 32 -33 45q-9 5 -33 11q-15 4 -15 15t17 11
q21 0 63 -1t63 -1q20 0 62 1t63 1q24 0 24 -13q0 -7 -31 -13.5t-31 -36.5q0 -16 8 -39l130 -370h2l87 251q21 61 21 109q0 43 -21 65q-12 13 -38 21q-21 7 -21 14q0 12 17 12q16 0 48 -1t48 -1q15 0 47 1t48 1q18 0 18 -13q0 -5 -20 -12q-27 -9 -44 -22q-27 -22 -40 -60
l-194 -566q-8 -23 -16 -23t-16 23z" />
    <glyph glyph-name="X" unicode="X" horiz-adv-x="685" 
d="M287 595l110 -179l77 116q23 35 23 60q0 34 -18 50q-10 9 -34 15q-18 5 -18 12q0 11 14 11q21 0 55 -1t49 -1t48.5 1t53.5 1q14 0 14 -9q0 -8 -16 -13q-27 -8 -47 -21q-36 -25 -72 -75l-119 -166l185 -308q23 -39 53 -53q13 -7 41 -11q17 -2 17 -13q0 -13 -20 -13
q-26 0 -76 1t-74 1q-25 0 -75 -1t-76 -1q-13 0 -13 11q0 10 32 17.5t32 34.5q0 18 -16 45l-120 200l-73 -116q-39 -62 -39 -111q0 -31 20 -44q9 -5 36 -10q20 -4 20 -14q0 -13 -27 -13q-22 0 -60 1t-55 1q-18 0 -55 -1t-56 -1q-27 0 -27 13q0 11 24 16q38 9 63 24
q46 27 88 86l131 187l-158 263q-24 40 -53 56q-13 7 -39 12q-16 3 -16 13q0 12 17 12q24 0 70.5 -1t69.5 -1t69.5 1t69.5 1q16 0 16 -12q0 -9 -29 -13t-29 -26q0 -14 12 -34z" />
    <glyph glyph-name="Y" unicode="Y" horiz-adv-x="630" 
d="M258 561l118 -221l78 138q36 64 36 118q0 29 -16 45q-9 9 -30 17q-16 6 -16 11q0 11 20 11q15 0 45 -1t51 -1q16 0 47 1t46 1q11 0 11 -10q0 -6 -16 -13q-24 -11 -47 -33q-37 -36 -79 -106l-118 -197v-241q0 -35 22 -47q11 -6 42 -9q22 -3 22 -13q0 -13 -20 -13
q-27 0 -73.5 1t-65.5 1t-65.5 -1t-73.5 -1q-20 0 -20 13q0 10 22 13q31 3 42 9q22 12 22 47v222l-161 293q-19 34 -45 50q-13 8 -38 13q-16 4 -16 11q0 11 17 11q25 0 72 -1t70 -1q24 0 70.5 1t69.5 1q22 0 22 -10q0 -8 -16 -11q-23 -4 -31 -8q-16 -10 -16 -34q0 -22 18 -56
z" />
    <glyph glyph-name="Z" unicode="Z" 
d="M184 22h82q147 0 227 115q23 33 40 85q12 38 20 38q9 0 9 -11q0 -4 -7 -40l-41 -211q-160 2 -244 2q-41 0 -123 -1t-123 -1q-12 0 -12 9q0 6 11 24l373 625h-60q-157 0 -230 -119q-22 -35 -35 -67q-7 -15 -13 -15q-8 0 -8 8q0 3 6 26l50 191q36 0 109 -1t110 -1t111 1
t112 1q16 0 16 -8q0 -5 -15 -30z" />
    <glyph glyph-name="bracketleft" unicode="[" horiz-adv-x="407" 
d="M100 -188v894q0 16 16 16h175q19 0 19 -12q0 -11 -36 -12q-21 -1 -36 -14q-18 -15 -18 -40v-770q0 -25 18 -40q15 -13 36 -14q36 -1 36 -12q0 -12 -19 -12h-175q-16 0 -16 16z" />
    <glyph glyph-name="backslash" unicode="\" horiz-adv-x="278" 
d="M306 -16h-102l-232 710h102z" />
    <glyph glyph-name="bracketright" unicode="]" horiz-adv-x="407" 
d="M307 706v-894q0 -16 -16 -16h-175q-19 0 -19 12q0 11 36 12q21 1 37.5 15t16.5 39v770q0 25 -16.5 39t-37.5 15q-36 1 -36 12q0 12 19 12h175q16 0 16 -16z" />
    <glyph glyph-name="asciicircum" unicode="^" horiz-adv-x="600" 
d="M503 351h-101l-102 211l-102 -211h-101l155 327h96z" />
    <glyph glyph-name="underscore" unicode="_" horiz-adv-x="500" 
d="M500 -125h-500v50h500v-50z" />
    <glyph glyph-name="grave" unicode="`" horiz-adv-x="296" 
d="M228 514h-50l-154 96q-32 20 -32 43q0 18 13 29.5t29 11.5q28 0 52 -26z" />
    <glyph glyph-name="a" unicode="a" horiz-adv-x="500" 
d="M422 334v-272q0 -28 25 -28q17 0 40 20l16 14q7 0 7 -8q0 -15 -35 -40q-41 -28 -85 -28q-42 0 -62 16t-32 54q-89 -70 -170 -70q-102 0 -102 92q0 47 33 78t126 68l113 45v114q0 51 -39 51q-32 0 -55 -18q-26 -21 -32 -57q-10 -57 -26.5 -79t-54.5 -22q-23 0 -37 15.5
t-14 40.5q0 53 88 98q85 44 175 44q121 0 121 -128zM296 86v169q-77 -30 -107 -56q-33 -30 -33 -75q0 -78 54 -78q42 0 86 40z" />
    <glyph glyph-name="b" unicode="b" 
d="M205 730v-340q82 72 164 72q83 0 139 -57t56 -149q0 -111 -77 -187.5t-189 -76.5q-77 0 -167 60l-39 -50q-8 -10 -10 -10q-3 0 -3 5v598q0 30 -21 45q-11 9 -38 17q-21 6 -21 13q0 9 41 17q80 16 165 43zM205 366v-254q0 -102 90 -102q66 0 102 56q35 53 35 145
q0 87 -40.5 139t-105.5 52q-45 0 -81 -36z" />
    <glyph glyph-name="c" unicode="c" horiz-adv-x="481" 
d="M33 218q0 105 65.5 174.5t166.5 69.5q82 0 137 -46q49 -43 49 -98q0 -70 -59 -70t-57 76q2 54 2 45q-2 75 -80 75q-50 0 -80 -43t-30 -113q0 -104 49 -164q44 -54 108 -54q54 0 90 24q23 16 40 44q14 24 16 24q8 0 8 -8q0 -39 -41 -90q-59 -72 -160 -72q-102 0 -165 69
q-59 64 -59 157z" />
    <glyph glyph-name="d" unicode="d" 
d="M514 730v-603q0 -30 21 -45q11 -9 40 -17q21 -6 21 -13q0 -9 -42 -17q-81 -16 -166 -43v80h-2q-68 -80 -175 -80q-70 0 -123 55q-59 61 -59 157q0 107 75.5 182.5t189.5 75.5q45 0 94 -16v149q0 30 -21 45q-11 9 -38 17q-21 6 -21 13q0 9 41 17q80 16 165 43zM388 94v248
q0 48 -26 75t-71 27q-59 0 -93 -49q-37 -53 -37 -155q0 -80 39.5 -134t90.5 -54q63 0 97 42z" />
    <glyph glyph-name="e" unicode="e" horiz-adv-x="500" 
d="M467 252h-320q1 -87 51 -137q45 -45 112 -45q75 0 122 52q11 12 19 28q6 11 10 11q6 0 6 -7q0 -42 -44 -92q-61 -70 -167 -70q-101 0 -162 65.5t-61 172.5q0 99 63.5 165.5t159.5 66.5q88 0 146 -53q62 -57 65 -157zM147 276h200q-1 94 -26 134q-21 34 -66 34
q-48 0 -77.5 -44.5t-30.5 -123.5z" />
    <glyph glyph-name="f" unicode="f" horiz-adv-x="315" 
d="M326 454l-14 -48h-96v-326q0 -35 18 -48q9 -7 34 -10q18 -3 18 -12q0 -12 -12 -12q-10 0 -50.5 1t-70.5 1t-70.5 -1t-50.5 -1q-12 0 -12 12q0 9 18 12q25 3 34 10q18 13 18 48v326h-62q39 33 61 87q13 30 35 111q24 90 60 123q28 25 76 25q39 0 67.5 -28t28.5 -61
q0 -31 -18.5 -50t-43.5 -19q-58 0 -58 61t-20 61q-34 0 -34 -65q0 -27 13 -92q16 -85 19 -105h112z" />
    <glyph glyph-name="g" unicode="g" horiz-adv-x="519" 
d="M362 606q28 0 47 -18.5t19 -44.5q0 -25 -17 -41t-39 -16q-13 0 -32 10t-28 10q-28 0 -34 -44q95 -9 146 -50q48 -40 48 -100q0 -68 -59.5 -106.5t-165.5 -43.5q-111 -5 -111 -52q0 -29 31 -38q35 -10 150 -10q103 0 148 -29.5t45 -93.5q0 -78 -83 -118q-71 -33 -191 -33
q-212 0 -212 102q0 56 66 82q-44 27 -44 85q0 98 126 115v2q-122 25 -122 133q0 66 53 109q57 46 157 46q14 144 102 144zM72 -101q0 -87 164 -87q184 0 184 76q0 25 -19 36q-26 16 -93 16q-75 0 -123 4q-32 2 -52 6q-16 4 -17 4q-18 0 -31 -18.5t-13 -36.5zM182 312
q0 -132 77 -132q75 0 75 132t-75 132q-77 0 -77 -132z" />
    <glyph glyph-name="h" unicode="h" 
d="M208 730v-341q65 41 96 54q44 19 91 19q50 0 82.5 -29t32.5 -85v-268q0 -35 18 -48q9 -7 34 -10q18 -3 18 -12q0 -12 -12 -12q-10 0 -50.5 1t-70.5 1t-70.5 -1t-50.5 -1q-12 0 -12 12q0 9 18 12q25 3 34 10q18 13 18 48v262q0 72 -64 72q-42 0 -112 -48v-286
q0 -35 18 -48q9 -7 34 -10q18 -3 18 -12q0 -12 -12 -12q-10 0 -50.5 1t-70.5 1t-70.5 -1t-50.5 -1q-12 0 -12 12q0 9 18 12q25 3 34 10q18 13 18 48v515q0 30 -21 45q-11 9 -38 17q-21 6 -21 13q0 9 41 17q80 16 165 43z" />
    <glyph glyph-name="i" unicode="i" horiz-adv-x="296" 
d="M211 462v-382q0 -35 21 -48q11 -7 40 -10q21 -3 21 -12q0 -12 -12 -12q-13 0 -58.5 1t-74.5 1t-74.5 -1t-58.5 -1q-12 0 -12 12q0 9 21 12q29 3 40 10q21 13 21 48v247q0 30 -21 45q-11 9 -38 17q-21 6 -21 13q0 9 41 17q80 16 165 43zM77 611q0 29 21 50t50 21t50 -21
t21 -50t-21 -50t-50 -21t-50 21t-21 50z" />
    <glyph glyph-name="j" unicode="j" horiz-adv-x="296" 
d="M226 462v-450q0 -119 -63 -177q-52 -47 -137 -47q-48 0 -77 24q-25 22 -25 53q0 25 15.5 42t38.5 17q24 0 40 -16.5t16 -43.5v-12q-1 -7 -1 -12q0 -34 32 -34q24 0 38.5 15t14.5 37q0 16 -9 36t-9 42v391q0 30 -21 45q-11 9 -38 17q-21 6 -21 13q0 9 41 17q80 16 165 43z
M92 611q0 29 21 50t50 21t50 -21t21 -50t-21 -50t-50 -21t-50 21t-21 50z" />
    <glyph glyph-name="k" unicode="k" horiz-adv-x="574" 
d="M272 242l-58 -38v-124q0 -35 18 -48q9 -7 34 -10q18 -3 18 -12q0 -12 -12 -12q-10 0 -50.5 1t-70.5 1t-70.5 -1t-50.5 -1q-12 0 -12 12q0 9 18 12q25 3 34 10q18 13 18 48v515q0 30 -21 45q-11 9 -38 17q-21 6 -21 13q0 9 41 17q80 16 165 43v-508q47 31 73 51
q109 85 109 123q0 29 -33.5 35.5t-33.5 13.5q0 11 17 11q10 0 45 -1t53 -1q21 0 52 1t42 1q16 0 16 -10q0 -7 -18 -10q-31 -5 -47 -11q-33 -13 -61 -42l-62 -65l155 -260q14 -23 34 -30q3 -1 29 -5q12 -2 12 -13q0 -12 -22 -12q-20 0 -60.5 1t-61.5 1q-20 0 -60.5 -1
t-61.5 -1q-18 0 -18 12q0 8 30 13.5t30 29.5q0 14 -11 33z" />
    <glyph glyph-name="l" unicode="l" horiz-adv-x="296" 
d="M211 730v-650q0 -35 21 -48q11 -7 40 -10q21 -3 21 -12q0 -12 -12 -12q-13 0 -58.5 1t-74.5 1t-74.5 -1t-58.5 -1q-12 0 -12 12q0 9 21 12q29 3 40 10q21 13 21 48v515q0 30 -21 45q-11 9 -38 17q-21 6 -21 13q0 9 41 17q80 16 165 43z" />
    <glyph glyph-name="m" unicode="m" horiz-adv-x="852" 
d="M209 462v-75q52 38 76 51q45 24 86 24q87 0 116 -76q96 76 171 76q111 0 111 -115v-267q0 -35 18 -48q9 -7 34 -10q18 -3 18 -12q0 -12 -12 -12q-10 0 -50.5 1t-70.5 1q-31 0 -70 -1t-45 -1q-12 0 -12 12q0 9 17 12q22 3 30 10q17 13 17 48v264q0 70 -56 70
q-37 0 -98 -47v-287q0 -35 17 -48q8 -7 30 -10q17 -3 17 -12q0 -12 -12 -12q-6 0 -45 1t-70 1t-70 -1t-45 -1q-12 0 -12 12q0 9 17 12q22 3 30 10q17 13 17 48v272q0 62 -55 62q-39 0 -99 -47v-287q0 -35 17 -48q8 -7 30 -10q17 -3 17 -12q0 -12 -12 -12q-6 0 -45 1t-70 1
q-30 0 -70.5 -1t-50.5 -1q-12 0 -12 12q0 9 18 12q25 3 34 10q18 13 18 48v251q0 30 -18 46q-11 10 -34 17q-18 6 -18 12q0 10 36 17q80 15 160 39z" />
    <glyph glyph-name="n" unicode="n" 
d="M208 462v-73q65 41 96 54q44 19 91 19q50 0 82.5 -29t32.5 -85v-268q0 -35 18 -48q9 -7 34 -10q18 -3 18 -12q0 -12 -12 -12q-10 0 -50.5 1t-70.5 1t-70.5 -1t-50.5 -1q-12 0 -12 12q0 9 18 12q25 3 34 10q18 13 18 48v262q0 72 -64 72q-42 0 -112 -48v-286q0 -35 18 -48
q9 -7 34 -10q18 -3 18 -12q0 -12 -12 -12q-10 0 -50.5 1t-70.5 1t-70.5 -1t-50.5 -1q-12 0 -12 12q0 9 18 12q25 3 34 10q18 13 18 48v251q0 30 -18 46q-11 10 -34 17q-18 6 -18 12q0 10 36 17q80 15 160 39z" />
    <glyph glyph-name="o" unicode="o" horiz-adv-x="574" 
d="M29 227q0 97 73 166t185 69t185 -69t73 -166t-73 -166t-185 -69t-185 69t-73 166zM171 227q0 -217 116 -217t116 217t-116 217t-116 -217z" />
    <glyph glyph-name="p" unicode="p" 
d="M205 462v-82l2 -1q70 83 169 83q81 0 136 -68q52 -65 52 -152q0 -103 -72 -175q-75 -75 -188 -75q-43 0 -99 16v-120q0 -35 21 -48q11 -7 40 -10q21 -3 21 -12q0 -12 -12 -12q-13 0 -58.5 1t-74.5 1t-74.5 -1t-58.5 -1q-12 0 -12 12q0 9 21 12q29 3 40 10q21 13 21 48
v439q0 30 -21 45q-11 9 -38 17q-21 6 -21 13q0 9 41 17q80 16 165 43zM205 354v-238q0 -46 26 -76t68 -30q59 0 94 45q39 51 39 149q0 89 -42 145q-40 53 -100 53q-45 0 -85 -48z" />
    <glyph glyph-name="q" unicode="q" 
d="M388 86v236q0 122 -87 122q-63 0 -100 -51q-40 -53 -40 -150q0 -90 37 -140.5t103 -50.5q53 0 87 34zM450 406l39 41q14 15 17 15q8 0 8 -12v-562q0 -35 21 -48q11 -7 40 -10q21 -3 21 -12q0 -12 -12 -12q-13 0 -58.5 1t-74.5 1t-74.5 -1t-58.5 -1q-12 0 -12 12
q0 9 21 12q29 3 40 10q21 13 21 48v172q-73 -68 -161 -68q-90 0 -144 58.5t-54 165.5q0 99 77.5 172.5t175.5 73.5q99 0 168 -56z" />
    <glyph glyph-name="r" unicode="r" horiz-adv-x="426" 
d="M220 462v-130h2q54 130 134 130q35 0 57.5 -19t22.5 -52q0 -69 -62 -69q-29 0 -46.5 28t-32.5 28q-30 0 -54 -42q-21 -35 -21 -64v-192q0 -35 18 -48q9 -7 34 -10q18 -3 18 -12q0 -12 -12 -12q-10 0 -50.5 1t-70.5 1t-70.5 -1t-50.5 -1q-12 0 -12 12q0 9 18 12
q25 3 34 10q18 13 18 48v251q0 30 -18 46q-11 10 -34 17q-18 6 -18 12q0 10 36 17q80 15 160 39z" />
    <glyph glyph-name="s" unicode="s" horiz-adv-x="426" 
d="M40 21v148q0 9 8 9q5 0 9 -10q10 -26 14 -35q57 -123 148 -123t91 75q0 45 -69 75q-65 26 -130 53q-69 41 -69 115q0 55 47 94.5t126 39.5q91 0 149 -38v-115q0 -7 -6 -7q-4 0 -10 13q-10 24 -17 38q-50 91 -129 91q-70 0 -70 -62q0 -40 69 -66q124 -47 130 -50
q69 -40 69 -112q0 -77 -52.5 -119.5t-138.5 -42.5q-88 0 -169 29z" />
    <glyph glyph-name="t" unicode="t" horiz-adv-x="352" 
d="M212 454h138l-24 -48h-114v-280q0 -86 64 -86q39 0 69 34q3 4 9 14q4 6 7 6q7 0 7 -8q0 -22 -34 -53q-46 -41 -117 -41q-64 0 -97.5 34t-33.5 94v286h-62q113 91 186 220h2v-172z" />
    <glyph glyph-name="u" unicode="u" 
d="M510 462v-339q0 -30 18 -46q11 -10 34 -17q18 -6 18 -12q0 -10 -36 -17q-80 -15 -160 -39v78q-45 -39 -77 -55q-46 -23 -104 -23q-121 0 -121 110v229q0 30 -18 46q-11 10 -34 17q-18 6 -18 12q0 10 36 17q80 15 160 39v-354q0 -68 67 -68q60 0 109 58v233q0 30 -18 46
q-11 10 -34 17q-18 6 -18 12q0 10 36 17q80 15 160 39z" />
    <glyph glyph-name="v" unicode="v" horiz-adv-x="500" 
d="M215 354l88 -208l61 131q25 54 25 99q0 29 -14 44q-8 8 -26 15q-14 5 -14 11q0 10 12 10t36 -1t36 -1t36 1t36 1t12 -9q0 -7 -11 -12q-17 -9 -28 -21q-22 -21 -41 -61l-167 -348q-6 -13 -14 -13q-9 0 -15 13l-172 397q-11 24 -34.5 31t-23.5 13q0 10 12 10q19 0 56.5 -1
t56.5 -1t57 1t59 1q15 0 15 -11q0 -7 -27 -13.5t-27 -32.5q0 -7 16 -45z" />
    <glyph glyph-name="w" unicode="w" horiz-adv-x="741" 
d="M290 156l72 162l-38 89q-9 22 -31.5 27.5t-22.5 10.5q0 11 13 11q16 0 51.5 -1t53.5 -1q17 0 55 1t61 1q12 0 12 -12q0 -6 -26 -13t-26 -31q0 -7 11 -35l81 -203l64 155q12 29 12 57q0 32 -15 46q-8 8 -28 13q-15 5 -15 12q0 11 18 11q12 0 34.5 -1t33.5 -1q12 0 36 1
t32 1q16 0 16 -11q0 -5 -15 -13q-21 -11 -36 -28q-26 -26 -45 -74l-133 -327q-4 -11 -13 -11t-13 11l-117 291l-127 -291q-5 -11 -13 -11q-9 0 -13 11l-160 402q-8 21 -29.5 27.5t-21.5 13.5q0 10 15 10q16 0 50.5 -1t51.5 -1t51.5 1t51.5 1q16 0 16 -11q0 -2 -23 -11.5
t-23 -31.5q0 -5 10 -31z" />
    <glyph glyph-name="x" unicode="x" horiz-adv-x="556" 
d="M309 84l-77 112q-70 -78 -70 -124q0 -26 15 -39q7 -7 26 -14q15 -5 15 -12q0 -9 -14 -9q-19 0 -49.5 1t-44.5 1q-18 0 -49.5 -1t-41.5 -1q-19 0 -19 11q0 8 17 12q28 6 48 17q36 20 71 66l84 110l-129 187q-17 25 -48 33q-25 7 -25 12q0 10 13 10q23 0 65.5 -1t63.5 -1
t63 1t63 1q16 0 16 -11q0 -3 -26 -11t-26 -27q0 -13 14 -33l57 -83q71 74 71 108q0 27 -24 35t-24 13q0 9 16 9q12 0 38 -1t39 -1t39.5 1t39.5 1q14 0 14 -8q0 -6 -27 -16q-39 -16 -80 -59l-91 -96l136 -202q21 -31 47 -44q12 -5 38 -10q15 -3 15 -12q0 -11 -20 -11
q-24 0 -68.5 1t-65.5 1t-65.5 -1t-68.5 -1q-15 0 -14 12q1 9 28.5 13.5t27.5 26.5q0 15 -13 34z" />
    <glyph glyph-name="y" unicode="y" horiz-adv-x="500" 
d="M244 -6l-173 386q-14 32 -34 45q-9 5 -29 10q-12 3 -12 12t16 9q19 0 56 -1t55 -1t54.5 1t54.5 1q12 0 12 -9q0 -4 -22 -12t-22 -29q0 -8 14 -40l96 -218l55 129q19 45 19 89q0 37 -18 54q-11 10 -34 15q-18 4 -18 11q0 10 12 10q15 0 45 -1t45 -1t45 1t45 1q10 0 10 -8
t-10 -11q-18 -6 -29 -14q-39 -28 -77 -116l-193 -447q-31 -72 -89 -72q-28 0 -48 19t-20 46q0 61 57 61q31 0 50 -29q5 -9 11 -19q4 -6 10 -6q12 0 22 25z" />
    <glyph glyph-name="z" unicode="z" horiz-adv-x="500" 
d="M298 438h-8q-115 0 -192 -93q-27 -33 -39 -63q-7 -18 -13 -18t-6 6q0 7 7 34l39 152q124 -2 184 -2q56 0 190 2l-284 -440h8q76 0 140 43q59 41 95 109q11 21 22 52q6 18 12 18q7 0 7 -6t-6 -36l-40 -198q-132 2 -199 2t-199 -2z" />
    <glyph glyph-name="braceleft" unicode="{" horiz-adv-x="407" 
d="M104 383v195q0 94 46 125q40 27 155 27v-24q-46 -4 -63.5 -28.5t-17.5 -81.5v-197q0 -63 -15 -91q-17 -35 -66 -48v-2q49 -13 66 -48q15 -28 15 -91v-197q0 -57 17.5 -81.5t63.5 -28.5v-24q-115 0 -155 27q-46 31 -46 125v195q0 55 -15.5 82.5t-60.5 41.5q45 14 61 43
q15 26 15 81z" />
    <glyph glyph-name="bar" unicode="|" horiz-adv-x="222" 
d="M60 0v730h102v-730h-102z" />
    <glyph glyph-name="braceright" unicode="}" horiz-adv-x="407" 
d="M303 135v-195q0 -94 -46 -125q-40 -27 -155 -27v24q46 4 63.5 28.5t17.5 81.5v197q0 63 15 91q17 35 66 48v2q-49 13 -66 48q-15 28 -15 91v197q0 57 -17.5 81.5t-63.5 28.5v24q115 0 155 -27q46 -31 46 -125v-195q0 -55 15 -81q16 -29 61 -43q-45 -14 -60.5 -41.5
t-15.5 -82.5z" />
    <glyph glyph-name="asciitilde" unicode="~" horiz-adv-x="600" 
d="M475 311v0l40 -87q-37 -41 -52 -53q-31 -24 -68 -24q-40 0 -91 29q-58 33 -103 33t-76 -66l-40 87q57 77 120 77q35 0 100 -29q71 -32 91 -32q36 0 79 65z" />
    <glyph glyph-name="exclamdown" unicode="&#xa1;" horiz-adv-x="278" 
d="M220 -98q0 -114 -81 -114t-81 114q0 57 23 147q33 127 43 183q0 1 3 47q2 21 12 21t11.5 -22t3.5 -46q10 -58 42 -183q24 -90 24 -147zM212 417q0 -30 -21.5 -51.5t-51.5 -21.5q-31 0 -52 21.5t-21 51.5q0 31 21 52t52 21q30 0 51.5 -21t21.5 -52z" />
    <glyph glyph-name="cent" unicode="&#xa2;" 
d="M116 0h-30l92 160q-38 24 -65 71.5t-27 98.5q0 105 63.5 172.5t159.5 67.5q43 0 85 -20l72 128h30l-78 -140q30 -20 48 -54q16 -30 16 -54q0 -28 -15.5 -46t-42.5 -18q-50 0 -58 74h-2l-115 -200q36 -38 93 -38q40 0 74 20q21 13 43 38q18 20 21 20q8 0 8 -7
q0 -34 -38 -82q-53 -67 -142 -67q-64 0 -108 22zM230 258l138 246q-15 48 -67 48q-56 0 -87.5 -42.5t-31.5 -111.5q0 -79 48 -140z" />
    <glyph glyph-name="sterling" unicode="&#xa3;" 
d="M58 316v48h104q-66 60 -66 142q0 74 57.5 127t134.5 53q43 0 91.5 -20t65.5 -20q14 0 19.5 12t10.5 12q9 0 10 -15l17 -177q0 -4 1 -14t1 -14q0 -12 -10 -12q-7 0 -14 24q-10 41 -31 79q-69 127 -165 127q-39 0 -62.5 -27.5t-23.5 -68.5q0 -47 57 -102q73 -71 91 -106
h132v-48h-114q4 -34 4 -50q0 -65 -28 -128q48 -26 84 -26q92 0 112 106q2 18 4 37q2 13 11 13t9 -12q0 -105 -34 -174q-45 -90 -139 -90q-62 0 -109 52q-46 -44 -108 -44q-46 0 -73 26t-27 74q0 44 30 76t81 32q70 0 138 -55q2 6 2 25q0 28 -25 69q-29 47 -70 69h-168z
M94 88q0 -28 21.5 -49t54.5 -21q60 0 96 42q-70 88 -114 88q-58 0 -58 -60z" />
    <glyph glyph-name="currency" unicode="&#xa4;" 
d="M501 606l60 -60l-58 -57q48 -53 48 -150t-48 -150l58 -57l-60 -60l-59 58q-55 -47 -146 -47t-146 47l-59 -58l-60 60l58 57q-48 53 -48 150t48 150l-58 57l60 60l59 -58q55 47 146 47t146 -47zM296 507q-68 0 -115.5 -49t-47.5 -119t47.5 -119t115.5 -49t115.5 49
t47.5 119t-47.5 119t-115.5 49z" />
    <glyph glyph-name="yen" unicode="&#xa5;" 
d="M540 220h-173v-140q0 -35 23 -47q11 -6 42 -9q23 -3 23 -13q0 -13 -20 -13q-27 0 -73.5 1t-65.5 1t-65.5 -1t-73.5 -1q-20 0 -20 13q0 10 23 13q31 3 42 9q23 12 23 47v140h-171v48h171v44l-20 36h-151v48h124l-116 211q-17 30 -43 43q-13 6 -39 9q-17 2 -17 10
q0 11 17 11q25 0 72 -1t70 -1q24 0 70.5 1t69.5 1q22 0 22 -10q0 -8 -19 -11q-28 -4 -37 -8q-19 -10 -19 -34q0 -18 22 -60l119 -227l85 148q44 77 44 118q0 29 -18 45q-11 9 -34 17q-18 6 -18 11q0 11 20 11q15 0 45 -1t51 -1q16 0 47 1t46 1q11 0 11 -10q0 -6 -16 -13
q-24 -11 -47 -33q-37 -36 -79 -106l-73 -122h126v-48h-156l-17 -29v-51h173v-48z" />
    <glyph glyph-name="brokenbar" unicode="&#xa6;" horiz-adv-x="222" 
d="M60 0v282h102v-282h-102zM60 448v282h102v-282h-102z" />
    <glyph glyph-name="section" unicode="&#xa7;" horiz-adv-x="500" 
d="M30 -98v181q0 11 8 11q7 0 13 -15q13 -36 22 -54q61 -125 177 -125q34 0 57 20t23 52q0 46 -76 85q-140 72 -142 74q-76 53 -76 133q0 110 126 150q-98 81 -98 149q0 61 45.5 96t126.5 35q44 0 94 -15t53 -15q18 0 30.5 12t15.5 12q9 0 9 -15v-153q0 -17 -10 -17
q-8 0 -13 14q-14 42 -15 43q-46 110 -130 110q-80 0 -80 -76q0 -47 73 -92q67 -41 134 -81q73 -54 73 -123q0 -60 -39 -97q-22 -20 -79 -47q98 -47 98 -127q0 -64 -52 -107.5t-136 -43.5q-49 0 -105 20t-62 20q-16 0 -30.5 -15t-20.5 -15q-14 0 -14 16zM374 233q0 37 -60 80
q-65 43 -131 85q-57 -16 -57 -70q0 -38 50 -76q41 -30 157 -88q13 2 27 22.5t14 46.5z" />
    <glyph glyph-name="dieresis" unicode="&#xa8;" horiz-adv-x="296" 
d="M192 587q0 24 17 41.5t42 17.5t42 -17.5t17 -41.5t-17 -41.5t-42 -17.5t-42 17.5t-17 41.5zM-14 587q0 24 17 41.5t42 17.5t42 -17.5t17 -41.5t-17 -41.5t-42 -17.5t-42 17.5t-17 41.5z" />
    <glyph glyph-name="copyright" unicode="&#xa9;" horiz-adv-x="800" 
d="M400 -16q-149 0 -248 101.5t-99 252.5t99 253.5t248 102.5t248 -102.5t99 -253.5t-99 -252.5t-248 -101.5zM400 42q115 0 191 86t76 210q0 125 -76 211.5t-191 86.5t-191 -86.5t-76 -211.5q0 -124 76 -210t191 -86zM548 263h22l-16 -76q-1 -10 -28 -22q-21 -5 -42 -11
q-35 -8 -64 -8q-102 0 -160 52t-58 152q0 77 48 131q59 67 177 67q46 0 103 -19q23 -8 23 -21v-72h-22q-26 88 -103 88q-108 0 -110 -168q-2 -186 110 -186q79 0 120 93z" />
    <glyph glyph-name="ordfeminine" unicode="&#xaa;" horiz-adv-x="300" 
d="M184 577v55q0 36 -22 36q-47 0 -58 -40q-10 -35 -16 -44q-11 -17 -37 -17q-34 0 -34 34q0 31 56.5 58t114.5 27q78 0 78 -77v-160q0 -17 17 -17q11 0 23 10t13 10q7 0 7 -7q0 -10 -23 -25q-27 -16 -55 -16q-49 0 -64 43q-59 -43 -110 -43q-66 0 -66 55q0 40 53 68
q6 3 123 50zM184 463v96q-88 -29 -88 -75q0 -42 34 -42q31 0 54 21z" />
    <glyph glyph-name="guillemotleft" unicode="&#xab;" horiz-adv-x="481" 
d="M257 390v0l-102 -163l102 -163q10 -16 10 -20q0 -8 -8 -8q-6 0 -25 18l-156 149q-17 16 -17 24t17 24l156 149q19 18 25 18q8 0 8 -8q0 -5 -10 -20zM411 390v0l-102 -163l102 -163q10 -16 10 -20q0 -8 -8 -8q-6 0 -25 18l-156 149q-17 16 -17 24t17 24l156 149
q19 18 25 18q8 0 8 -8q0 -5 -10 -20z" />
    <glyph glyph-name="logicalnot" unicode="&#xac;" horiz-adv-x="600" 
d="M425 76v200h-352v102h454v-302h-102z" />
    <glyph glyph-name="minus" unicode="&#xad;" horiz-adv-x="333" 
d="M527 176h-454v102h454v-102z" />
    <glyph glyph-name="minus" unicode="&#x2212;" horiz-adv-x="333" 
d="M527 176h-454v102h454v-102z" />
    <glyph glyph-name="registered" unicode="&#xae;" horiz-adv-x="800" 
d="M234 518v18h201q49 0 80 -25t31 -74q0 -33 -20.5 -61.5t-56.5 -39.5l58 -84q37 -54 63 -81v-14h-90q-18 0 -48 57q-51 99 -58 110h-27v-106q0 -25 6 -32t37 -9v-20h-176v20q31 2 38 10q5 5 5 31v259q0 25 -6 32t-37 9zM367 512v-164h28q55 0 55 86q0 78 -52 78h-31z
M400 -16q-149 0 -248 101.5t-99 252.5t99 253.5t248 102.5t248 -102.5t99 -253.5t-99 -252.5t-248 -101.5zM400 42q115 0 191 86t76 210q0 125 -76 211.5t-191 86.5t-191 -86.5t-76 -211.5q0 -124 76 -210t191 -86z" />
    <glyph glyph-name="macron" unicode="&#xaf;" horiz-adv-x="296" 
d="M-14 554v66h324v-66h-324z" />
    <glyph glyph-name="macron" unicode="&#x2c9;" horiz-adv-x="296" 
d="M-14 554v66h324v-66h-324z" />
    <glyph glyph-name="degree" unicode="&#xb0;" horiz-adv-x="400" 
d="M200 450q36 0 62.5 28t26.5 65t-26.5 65t-62.5 28t-62.5 -28t-26.5 -65t26.5 -65t62.5 -28zM200 400q-60 0 -101.5 41.5t-41.5 101.5t41.5 101.5t101.5 41.5t101.5 -41.5t41.5 -101.5t-41.5 -101.5t-101.5 -41.5z" />
    <glyph glyph-name="plusminus" unicode="&#xb1;" horiz-adv-x="600" 
d="M249 344v110h102v-110h176v-102h-176v-110h-102v110h-176v102h176zM73 0v102h454v-102h-454z" />
    <glyph glyph-name="twosuperior" unicode="&#xb2;" horiz-adv-x="355" 
d="M85 352h154q32 0 52 12q12 7 22 22q8 12 12 12q8 0 8 -8q0 -3 -4 -17l-29 -99h-278q1 59 55 108l100 76q54 43 54 88q0 35 -24 60q-27 26 -70 26q-47 0 -81 -34q-8 -8 -20 -28q-9 -14 -14 -14t-5 5q0 24 31 64q48 61 134 61q63 0 104 -36t41 -85q0 -58 -48 -95
q-18 -13 -101 -52q-67 -31 -93 -66z" />
    <glyph glyph-name="threesuperior" unicode="&#xb3;" horiz-adv-x="355" 
d="M304 587q0 -35 -34 -66q72 -47 72 -108q0 -60 -54 -102.5t-126 -42.5q-68 0 -111 24.5t-43 58.5q0 19 13.5 33t33.5 14q47 0 49 -60q1 -52 57 -52q37 0 63 25t26 67q0 73 -71 95q-9 3 -34 5q-15 1 -15 8q0 9 15 10q25 1 40 9q37 18 37 68q0 69 -81 69q-39 0 -65.5 -25
t-27.5 -25q-7 0 -7 8q0 21 31 49q40 37 105 37q51 0 88 -25q39 -28 39 -74z" />
    <glyph glyph-name="acute" unicode="&#xb4;" horiz-adv-x="296" 
d="M118 514h-50l142 154q24 26 52 26q16 0 29 -11.5t13 -29.5q0 -23 -32 -43z" />
    <glyph glyph-name="mu1" unicode="&#xb5;" 
 />
    <glyph glyph-name="paragraph" unicode="&#xb6;" horiz-adv-x="620" 
d="M560 678v-24q-49 -5 -62.5 -13t-13.5 -33v-732h-84v772h-60v-772h-84v404q-84 0 -129 56t-45 150q0 102 47.5 147t155.5 45h275z" />
    <glyph glyph-name="periodcentered" unicode="&#xb7;" horiz-adv-x="296" 
d="M75 227q0 30 21.5 51.5t51.5 21.5q31 0 52 -21.5t21 -51.5q0 -31 -21 -52t-52 -21q-30 0 -51.5 21t-21.5 52z" />
    <glyph glyph-name="periodcentered" unicode="&#x2219;" horiz-adv-x="296" 
d="M75 227q0 30 21.5 51.5t51.5 21.5q31 0 52 -21.5t21 -51.5q0 -31 -21 -52t-52 -21q-30 0 -51.5 21t-21.5 52z" />
    <glyph glyph-name="cedilla" unicode="&#xb8;" horiz-adv-x="296" 
d="M118 0h42l-32 -66q11 4 35 4q37 0 61 -17.5t24 -49.5q0 -89 -128 -89q-43 0 -92 14l16 36q38 -12 60 -12q60 0 60 41q0 17 -14 28t-34 11q-17 0 -28 -4l-12 8z" />
    <glyph glyph-name="onesuperior" unicode="&#xb9;" horiz-adv-x="355" 
d="M234 672v-335q0 -41 47 -41t47 -14q0 -10 -11 -10q-22 0 -66.5 1t-66.5 1t-66.5 -1t-66.5 -1q-12 0 -12 10q0 14 49.5 14t49.5 40v267q0 17 -14 17h-89q-9 0 -9 10q0 9 20 10q26 2 53 4q37 5 82 24q42 18 40 18q13 0 13 -14z" />
    <glyph glyph-name="ordmasculine" unicode="&#xba;" horiz-adv-x="344" 
d="M4 545q0 58 47.5 99.5t120.5 41.5t122 -42q46 -41 46 -99t-46 -99q-49 -42 -122 -42t-120.5 41.5t-47.5 99.5zM94 545q0 -123 78 -123t78 123t-78 123t-78 -123z" />
    <glyph glyph-name="guillemotright" unicode="&#xbb;" horiz-adv-x="481" 
d="M224 64v0l102 163l-102 163q-10 16 -10 20q0 8 8 8q6 0 25 -18l156 -149q17 -16 17 -24t-17 -24l-156 -149q-19 -18 -25 -18q-8 0 -8 8q0 5 10 20zM70 64v0l102 163l-102 163q-10 16 -10 20q0 8 8 8q6 0 25 -18l156 -149q17 -16 17 -24t-17 -24l-156 -149
q-19 -18 -25 -18q-8 0 -8 8q0 5 10 20z" />
    <glyph glyph-name="onequarter" unicode="&#xbc;" horiz-adv-x="889" 
d="M701 144v168h-1l-152 -168h153zM793 407v-263h79l-15 -32h-64v-59q0 -29 30 -33t30 -10q0 -12 -12 -12q-18 0 -49.5 1t-44.5 1q-12 0 -43.5 -1t-50.5 -1q-12 0 -12 12q0 6 30 10t30 33v59h-181l-12 25l240 270h45zM291 -8h-84l417 694h84zM234 672v-335q0 -41 47 -41
t47 -14q0 -10 -11 -10q-22 0 -66.5 1t-66.5 1t-66.5 -1t-66.5 -1q-12 0 -12 10q0 14 49.5 14t49.5 40v267q0 17 -14 17h-89q-9 0 -9 10q0 9 20 10q26 2 53 4q37 5 82 24q42 18 40 18q13 0 13 -14z" />
    <glyph glyph-name="onehalf" unicode="&#xbd;" horiz-adv-x="889" 
d="M283 -8h-84l417 694h84zM234 672v-335q0 -41 47 -41t47 -14q0 -10 -11 -10q-22 0 -66.5 1t-66.5 1t-66.5 -1t-66.5 -1q-12 0 -12 10q0 14 49.5 14t49.5 40v267q0 17 -14 17h-89q-9 0 -9 10q0 9 20 10q26 2 53 4q37 5 82 24q42 18 40 18q13 0 13 -14zM609 78h154
q32 0 52 12q12 7 22 22q8 12 12 12q8 0 8 -8q0 -3 -4 -17l-29 -99h-278q1 59 55 108l100 76q54 43 54 88q0 35 -24 60q-27 26 -70 26q-47 0 -81 -34q-8 -8 -20 -28q-9 -14 -14 -14t-5 5q0 24 31 64q48 61 134 61q63 0 104 -36t41 -85q0 -58 -48 -95q-18 -13 -101 -52
q-67 -31 -93 -66z" />
    <glyph glyph-name="threequarters" unicode="&#xbe;" horiz-adv-x="889" 
d="M713 144v168h-1l-152 -168h153zM805 407v-263h79l-15 -32h-64v-59q0 -29 30 -33t30 -10q0 -11 -12 -11h-50q-31 1 -44 1q-12 0 -44 -1h-50q-12 0 -12 11q0 6 30 10t30 33v59h-181l-12 25l240 270h45zM311 -8h-84l417 694h84zM328 587q0 -35 -34 -66q72 -47 72 -108
q0 -60 -54 -102.5t-126 -42.5q-68 0 -111 24.5t-43 58.5q0 19 13.5 33t33.5 14q47 0 49 -60q1 -52 57 -52q37 0 63 25t26 67q0 73 -71 95q-9 3 -34 5q-15 1 -15 8q0 9 15 10q25 1 40 9q37 18 37 68q0 69 -81 69q-39 0 -65.5 -25t-27.5 -25q-7 0 -7 8q0 21 31 49
q40 37 105 37q51 0 88 -25q39 -28 39 -74z" />
    <glyph glyph-name="questiondown" unicode="&#xbf;" horiz-adv-x="500" 
d="M274 294l30 6q7 -70 58 -218l-28 -16q-31 38 -88 38q-63 0 -105 -40q-47 -45 -47 -120q0 -53 33 -86.5t89 -33.5q54 0 82 41q18 39 37 78q23 41 64 41q24 0 40.5 -16.5t16.5 -42.5q0 -56 -53.5 -96.5t-131.5 -40.5q-115 0 -183 74q-60 66 -60 161q0 76 47 131
q59 68 167 68h32v72zM361 417q0 -30 -21.5 -51.5t-51.5 -21.5q-31 0 -52 21.5t-21 51.5q0 31 21 52t52 21q30 0 51.5 -21t21.5 -52z" />
    <glyph glyph-name="Agrave" unicode="&#xc0;" horiz-adv-x="704" 
d="M196 274h212l-110 269zM418 256h-228l-28 -76q-14 -41 -14 -73q0 -40 22 -62q13 -14 39 -25q22 -9 22 -14q0 -8 -9 -8q-18 0 -56 1t-58 1q-19 0 -58 -1t-59 -1q-11 0 -11 9t21 14q81 18 149 194l127 329q7 18 7 29q0 12 -15 22t-15 12q0 3 16 13q24 16 49.5 42t39.5 48
q8 12 12 12q5 0 15 -25l253 -616q14 -35 37 -51q12 -9 33 -14q15 -4 15 -10q0 -8 -10 -8q-23 0 -70 1t-71 1t-71.5 -1t-69.5 -1q-12 0 -12 10q0 7 18 10q25 5 34 9q18 10 18 34q0 20 -16 59zM438 721h-50l-154 96q-32 20 -32 43q0 18 13 29.5t29 11.5q28 0 52 -26z" />
    <glyph glyph-name="Aacute" unicode="&#xc1;" horiz-adv-x="704" 
d="M196 274h212l-110 269zM418 256h-228l-28 -76q-14 -41 -14 -73q0 -40 22 -62q13 -14 39 -25q22 -9 22 -14q0 -8 -9 -8q-18 0 -56 1t-58 1q-19 0 -58 -1t-59 -1q-11 0 -11 9t21 14q81 18 149 194l127 329q7 18 7 29q0 12 -15 22t-15 12q0 3 16 13q24 16 49.5 42t39.5 48
q8 12 12 12q5 0 15 -25l253 -616q14 -35 37 -51q12 -9 33 -14q15 -4 15 -10q0 -8 -10 -8q-23 0 -70 1t-71 1t-71.5 -1t-69.5 -1q-12 0 -12 10q0 7 18 10q25 5 34 9q18 10 18 34q0 20 -16 59zM328 721h-50l142 154q24 26 52 26q16 0 29 -11.5t13 -29.5q0 -23 -32 -43z" />
    <glyph glyph-name="Acircumflex" unicode="&#xc2;" horiz-adv-x="704" 
d="M196 274h212l-110 269zM418 256h-228l-28 -76q-14 -41 -14 -73q0 -40 22 -62q13 -14 39 -25q22 -9 22 -14q0 -8 -9 -8q-18 0 -56 1t-58 1q-19 0 -58 -1t-59 -1q-11 0 -11 9t21 14q81 18 149 194l127 329q7 18 7 29q0 12 -15 22t-15 12q0 3 16 13q24 16 49.5 42t39.5 48
q8 12 12 12q5 0 15 -25l253 -616q14 -35 37 -51q12 -9 33 -14q15 -4 15 -10q0 -8 -10 -8q-23 0 -70 1t-71 1t-71.5 -1t-69.5 -1q-12 0 -12 10q0 7 18 10q25 5 34 9q18 10 18 34q0 20 -16 59zM320 895h78l124 -174h-50l-114 102l-114 -102h-50z" />
    <glyph glyph-name="Atilde" unicode="&#xc3;" horiz-adv-x="704" 
d="M196 274h212l-110 269zM418 256h-228l-28 -76q-14 -41 -14 -73q0 -40 22 -62q13 -14 39 -25q22 -9 22 -14q0 -8 -9 -8q-18 0 -56 1t-58 1q-19 0 -58 -1t-59 -1q-11 0 -11 9t21 14q81 18 149 194l127 329q7 18 7 29q0 12 -15 22t-15 12q0 3 16 13q24 16 49.5 42t39.5 48
q8 12 12 12q5 0 15 -25l253 -616q14 -35 37 -51q12 -9 33 -14q15 -4 15 -10q0 -8 -10 -8q-23 0 -70 1t-71 1t-71.5 -1t-69.5 -1q-12 0 -12 10q0 7 18 10q25 5 34 9q18 10 18 34q0 20 -16 59zM498 861v0h36q-31 -118 -114 -118q-35 0 -83 24t-65 24q-20 0 -35.5 -13.5
t-18.5 -34.5h-36q7 57 41 89q30 29 73 29q30 0 78.5 -24t68.5 -24q38 0 55 48z" />
    <glyph glyph-name="Adieresis" unicode="&#xc4;" horiz-adv-x="704" 
d="M196 274h212l-110 269zM418 256h-228l-28 -76q-14 -41 -14 -73q0 -40 22 -62q13 -14 39 -25q22 -9 22 -14q0 -8 -9 -8q-18 0 -56 1t-58 1q-19 0 -58 -1t-59 -1q-11 0 -11 9t21 14q81 18 149 194l127 329q7 18 7 29q0 12 -15 22t-15 12q0 3 16 13q24 16 49.5 42t39.5 48
q8 12 12 12q5 0 15 -25l253 -616q14 -35 37 -51q12 -9 33 -14q15 -4 15 -10q0 -8 -10 -8q-23 0 -70 1t-71 1t-71.5 -1t-69.5 -1q-12 0 -12 10q0 7 18 10q25 5 34 9q18 10 18 34q0 20 -16 59zM402 794q0 24 17 41.5t42 17.5t42 -17.5t17 -41.5t-17 -41.5t-42 -17.5t-42 17.5
t-17 41.5zM196 794q0 24 17 41.5t42 17.5t42 -17.5t17 -41.5t-17 -41.5t-42 -17.5t-42 17.5t-17 41.5z" />
    <glyph glyph-name="Aring" unicode="&#xc5;" horiz-adv-x="704" 
d="M196 274h212l-110 269zM418 256h-228l-28 -76q-14 -41 -14 -73q0 -40 22 -62q13 -14 39 -25q22 -9 22 -14q0 -8 -9 -8q-18 0 -56 1t-58 1q-19 0 -58 -1t-59 -1q-11 0 -11 9t21 14q81 18 149 194l127 329q7 18 7 29q0 12 -15 22t-15 12q0 3 16 13q24 16 49.5 42t39.5 48
q8 12 12 12q5 0 15 -25l253 -616q14 -35 37 -51q12 -9 33 -14q15 -4 15 -10q0 -8 -10 -8q-23 0 -70 1t-71 1t-71.5 -1t-69.5 -1q-12 0 -12 10q0 7 18 10q25 5 34 9q18 10 18 34q0 20 -16 59zM256 825q0 44 29 73t73 29t73 -29t29 -73t-29 -73t-73 -29t-73 29t-29 73z
M298 825q0 -25 17.5 -42.5t42.5 -17.5t42.5 17.5t17.5 42.5t-17.5 42.5t-42.5 17.5t-42.5 -17.5t-17.5 -42.5z" />
    <glyph glyph-name="AE" unicode="&#xc6;" horiz-adv-x="1019" 
d="M464 332h-220l-91 -140q-25 -38 -25 -78q0 -44 22 -66q13 -13 42 -22q22 -7 22 -15q0 -13 -21 -13q-20 0 -56.5 1t-54.5 1q-17 0 -55 -1t-60 -1q-19 0 -19 14q0 7 23 20q36 20 58 37q41 33 73 83l293 453q17 26 17 35q0 12 -24 17t-24 13q0 10 20 10q43 0 128.5 -1
t127.5 -1t128 1t129 1l50 -191q6 -23 6 -26q0 -8 -10 -8q-5 0 -12 17q-16 33 -35 65q-72 119 -232 119h-54v-300h25q52 0 87 35t38 89q1 25 14 25q10 0 10 -14v-306q0 -14 -10 -14q-13 0 -14 25q-3 65 -37 100.5t-88 35.5h-25v-240q0 -36 18 -53t64 -17q107 0 182 68
q62 56 89 142q9 28 16 28q10 0 10 -11q0 -9 -4 -29l-44 -222l-404 2q-19 0 -65.5 -1t-73.5 -1q-20 0 -20 13q0 10 22 13q31 3 42 9q22 12 22 47v252zM464 356v300h-2l-200 -300h202z" />
    <glyph glyph-name="Ccedilla" unicode="&#xc7;" horiz-adv-x="704" 
d="M636 668v-252q0 -20 -11 -20q-8 0 -13 25q-10 44 -26 82q-71 167 -198 167q-196 0 -196 -331t202 -331q69 0 132 62q55 53 79 124q9 26 15 61q2 17 11 17t9 -16v-263q0 -17 -12 -17q-6 0 -13.5 28t-35.5 28q-11 0 -74 -24t-129 -24q-154 0 -251 101t-97 254
q0 150 102 252.5t246 102.5q66 0 130 -28t78 -28q22 0 27 22t13 22q12 0 12 -14zM339 0h42l-32 -66q11 4 35 4q37 0 61 -17.5t24 -49.5q0 -89 -128 -89q-43 0 -92 14l16 36q38 -12 60 -12q60 0 60 41q0 17 -14 28t-34 11q-17 0 -28 -4l-12 8z" />
    <glyph glyph-name="Egrave" unicode="&#xc8;" horiz-adv-x="667" 
d="M112 80v518q0 35 -22 47q-11 6 -42 9q-22 3 -22 13q0 13 20 13q27 0 73.5 -1t65.5 -1q124 0 360 2l50 -191q6 -23 6 -26q0 -8 -10 -8q-5 0 -12 17q-16 33 -35 65q-72 119 -232 119h-54v-288h25q52 0 87 35t38 89q1 25 14 25q10 0 10 -14v-306q0 -14 -10 -14q-13 0 -14 25
q-3 65 -37 100.5t-88 35.5h-25v-252q0 -36 18 -53t64 -17q107 0 182 68q62 56 89 142q9 28 16 28q10 0 10 -11q0 -9 -4 -29l-44 -222l-404 2q-19 0 -65.5 -1t-73.5 -1q-20 0 -20 13q0 10 22 13q31 3 42 9q22 12 22 47zM414 721h-50l-154 96q-32 20 -32 43q0 18 13 29.5
t29 11.5q28 0 52 -26z" />
    <glyph glyph-name="Eacute" unicode="&#xc9;" horiz-adv-x="667" 
d="M112 80v518q0 35 -22 47q-11 6 -42 9q-22 3 -22 13q0 13 20 13q27 0 73.5 -1t65.5 -1q124 0 360 2l50 -191q6 -23 6 -26q0 -8 -10 -8q-5 0 -12 17q-16 33 -35 65q-72 119 -232 119h-54v-288h25q52 0 87 35t38 89q1 25 14 25q10 0 10 -14v-306q0 -14 -10 -14q-13 0 -14 25
q-3 65 -37 100.5t-88 35.5h-25v-252q0 -36 18 -53t64 -17q107 0 182 68q62 56 89 142q9 28 16 28q10 0 10 -11q0 -9 -4 -29l-44 -222l-404 2q-19 0 -65.5 -1t-73.5 -1q-20 0 -20 13q0 10 22 13q31 3 42 9q22 12 22 47zM304 721h-50l142 154q24 26 52 26q16 0 29 -11.5
t13 -29.5q0 -23 -32 -43z" />
    <glyph glyph-name="Ecircumflex" unicode="&#xca;" horiz-adv-x="667" 
d="M112 80v518q0 35 -22 47q-11 6 -42 9q-22 3 -22 13q0 13 20 13q27 0 73.5 -1t65.5 -1q124 0 360 2l50 -191q6 -23 6 -26q0 -8 -10 -8q-5 0 -12 17q-16 33 -35 65q-72 119 -232 119h-54v-288h25q52 0 87 35t38 89q1 25 14 25q10 0 10 -14v-306q0 -14 -10 -14q-13 0 -14 25
q-3 65 -37 100.5t-88 35.5h-25v-252q0 -36 18 -53t64 -17q107 0 182 68q62 56 89 142q9 28 16 28q10 0 10 -11q0 -9 -4 -29l-44 -222l-404 2q-19 0 -65.5 -1t-73.5 -1q-20 0 -20 13q0 10 22 13q31 3 42 9q22 12 22 47zM296 895h78l124 -174h-50l-114 102l-114 -102h-50z" />
    <glyph glyph-name="Edieresis" unicode="&#xcb;" horiz-adv-x="667" 
d="M112 80v518q0 35 -22 47q-11 6 -42 9q-22 3 -22 13q0 13 20 13q27 0 73.5 -1t65.5 -1q124 0 360 2l50 -191q6 -23 6 -26q0 -8 -10 -8q-5 0 -12 17q-16 33 -35 65q-72 119 -232 119h-54v-288h25q52 0 87 35t38 89q1 25 14 25q10 0 10 -14v-306q0 -14 -10 -14q-13 0 -14 25
q-3 65 -37 100.5t-88 35.5h-25v-252q0 -36 18 -53t64 -17q107 0 182 68q62 56 89 142q9 28 16 28q10 0 10 -11q0 -9 -4 -29l-44 -222l-404 2q-19 0 -65.5 -1t-73.5 -1q-20 0 -20 13q0 10 22 13q31 3 42 9q22 12 22 47zM378 794q0 24 17 41.5t42 17.5t42 -17.5t17 -41.5
t-17 -41.5t-42 -17.5t-42 17.5t-17 41.5zM172 794q0 24 17 41.5t42 17.5t42 -17.5t17 -41.5t-17 -41.5t-42 -17.5t-42 17.5t-17 41.5z" />
    <glyph glyph-name="Igrave" unicode="&#xcc;" horiz-adv-x="370" 
d="M112 80v518q0 35 -22 47q-11 6 -42 9q-22 3 -22 13q0 13 20 13q27 0 73.5 -1t65.5 -1t65.5 1t73.5 1q20 0 20 -13q0 -10 -22 -13q-31 -3 -42 -9q-22 -12 -22 -47v-518q0 -35 22 -47q11 -6 42 -9q22 -3 22 -13q0 -13 -20 -13q-27 0 -73.5 1t-65.5 1t-65.5 -1t-73.5 -1
q-20 0 -20 13q0 10 22 13q31 3 42 9q22 12 22 47zM265 721h-50l-154 96q-32 20 -32 43q0 18 13 29.5t29 11.5q28 0 52 -26z" />
    <glyph glyph-name="Iacute" unicode="&#xcd;" horiz-adv-x="370" 
d="M112 80v518q0 35 -22 47q-11 6 -42 9q-22 3 -22 13q0 13 20 13q27 0 73.5 -1t65.5 -1t65.5 1t73.5 1q20 0 20 -13q0 -10 -22 -13q-31 -3 -42 -9q-22 -12 -22 -47v-518q0 -35 22 -47q11 -6 42 -9q22 -3 22 -13q0 -13 -20 -13q-27 0 -73.5 1t-65.5 1t-65.5 -1t-73.5 -1
q-20 0 -20 13q0 10 22 13q31 3 42 9q22 12 22 47zM155 721h-50l142 154q24 26 52 26q16 0 29 -11.5t13 -29.5q0 -23 -32 -43z" />
    <glyph glyph-name="Icircumflex" unicode="&#xce;" horiz-adv-x="370" 
d="M112 80v518q0 35 -22 47q-11 6 -42 9q-22 3 -22 13q0 13 20 13q27 0 73.5 -1t65.5 -1t65.5 1t73.5 1q20 0 20 -13q0 -10 -22 -13q-31 -3 -42 -9q-22 -12 -22 -47v-518q0 -35 22 -47q11 -6 42 -9q22 -3 22 -13q0 -13 -20 -13q-27 0 -73.5 1t-65.5 1t-65.5 -1t-73.5 -1
q-20 0 -20 13q0 10 22 13q31 3 42 9q22 12 22 47zM147 895h78l124 -174h-50l-114 102l-114 -102h-50z" />
    <glyph glyph-name="Idieresis" unicode="&#xcf;" horiz-adv-x="370" 
d="M112 80v518q0 35 -22 47q-11 6 -42 9q-22 3 -22 13q0 13 20 13q27 0 73.5 -1t65.5 -1t65.5 1t73.5 1q20 0 20 -13q0 -10 -22 -13q-31 -3 -42 -9q-22 -12 -22 -47v-518q0 -35 22 -47q11 -6 42 -9q22 -3 22 -13q0 -13 -20 -13q-27 0 -73.5 1t-65.5 1t-65.5 -1t-73.5 -1
q-20 0 -20 13q0 10 22 13q31 3 42 9q22 12 22 47zM229 794q0 24 17 41.5t42 17.5t42 -17.5t17 -41.5t-17 -41.5t-42 -17.5t-42 17.5t-17 41.5zM23 794q0 24 17 41.5t42 17.5t42 -17.5t17 -41.5t-17 -41.5t-42 -17.5t-42 17.5t-17 41.5z" />
    <glyph glyph-name="Eth" unicode="&#xd0;" horiz-adv-x="759" 
d="M12 344v36h100v218q0 35 -22 47q-11 6 -42 9q-22 3 -22 13q0 13 20 13q27 0 73.5 -1t65.5 -1q28 0 83 1t87 1q174 0 278 -101q98 -95 98 -241q0 -158 -87.5 -249t-230.5 -91q-30 0 -106 1t-122 1q-19 0 -65.5 -1t-73.5 -1q-20 0 -20 13q0 10 22 13q31 3 42 9q22 12 22 47
v264h-100zM426 380v-36h-168v-221q0 -101 118 -101q92 0 146 74q57 79 57 228q0 160 -62.5 246t-172.5 86h-86v-276h168z" />
    <glyph glyph-name="Ntilde" unicode="&#xd1;" horiz-adv-x="722" 
d="M135 560v-406q0 -99 62 -126q11 -5 37 -8q17 -1 17 -11q0 -11 -14 -11q-16 0 -54.5 1t-59.5 1t-59.5 -1t-54.5 -1q-14 0 -14 11q0 10 17 11q26 3 37 8q62 27 62 126v437q-40 58 -93 65q-23 3 -23 13q0 11 12 11q17 0 53 -1t55 -1h112l358 -450h2v296q0 99 -62 126
q-11 5 -37 8q-17 1 -17 11q0 11 14 11q16 0 54.5 -1t59.5 -1t59.5 1t54.5 1q14 0 14 -11q0 -10 -17 -11q-26 -3 -37 -8q-62 -27 -62 -126v-515q0 -33 -9 -33q-6 0 -25 24l-440 560h-2zM507 861v0h36q-31 -118 -114 -118q-35 0 -83 24t-65 24q-20 0 -35.5 -13.5t-18.5 -34.5
h-36q7 57 41 89q30 29 73 29q30 0 78.5 -24t68.5 -24q38 0 55 48z" />
    <glyph glyph-name="Ograve" unicode="&#xd2;" horiz-adv-x="796" 
d="M192 339q0 -157 55.5 -244t150.5 -87t150.5 87t55.5 244t-55.5 244t-150.5 87t-150.5 -87t-55.5 -244zM28 339q0 145 102 248q106 107 268 107t268 -107q102 -103 102 -248t-102 -248q-106 -107 -268 -107t-268 107q-102 103 -102 248zM478 721h-50l-154 96
q-32 20 -32 43q0 18 13 29.5t29 11.5q28 0 52 -26z" />
    <glyph glyph-name="Oacute" unicode="&#xd3;" horiz-adv-x="796" 
d="M192 339q0 -157 55.5 -244t150.5 -87t150.5 87t55.5 244t-55.5 244t-150.5 87t-150.5 -87t-55.5 -244zM28 339q0 145 102 248q106 107 268 107t268 -107q102 -103 102 -248t-102 -248q-106 -107 -268 -107t-268 107q-102 103 -102 248zM368 721h-50l142 154q24 26 52 26
q16 0 29 -11.5t13 -29.5q0 -23 -32 -43z" />
    <glyph glyph-name="Ocircumflex" unicode="&#xd4;" horiz-adv-x="796" 
d="M192 339q0 -157 55.5 -244t150.5 -87t150.5 87t55.5 244t-55.5 244t-150.5 87t-150.5 -87t-55.5 -244zM28 339q0 145 102 248q106 107 268 107t268 -107q102 -103 102 -248t-102 -248q-106 -107 -268 -107t-268 107q-102 103 -102 248zM360 895h78l124 -174h-50l-114 102
l-114 -102h-50z" />
    <glyph glyph-name="Otilde" unicode="&#xd5;" horiz-adv-x="796" 
d="M192 339q0 -157 55.5 -244t150.5 -87t150.5 87t55.5 244t-55.5 244t-150.5 87t-150.5 -87t-55.5 -244zM28 339q0 145 102 248q106 107 268 107t268 -107q102 -103 102 -248t-102 -248q-106 -107 -268 -107t-268 107q-102 103 -102 248zM538 861v0h36q-31 -118 -114 -118
q-35 0 -83 24t-65 24q-20 0 -35.5 -13.5t-18.5 -34.5h-36q7 57 41 89q30 29 73 29q30 0 78.5 -24t68.5 -24q38 0 55 48z" />
    <glyph glyph-name="Odieresis" unicode="&#xd6;" horiz-adv-x="796" 
d="M192 339q0 -157 55.5 -244t150.5 -87t150.5 87t55.5 244t-55.5 244t-150.5 87t-150.5 -87t-55.5 -244zM28 339q0 145 102 248q106 107 268 107t268 -107q102 -103 102 -248t-102 -248q-106 -107 -268 -107t-268 107q-102 103 -102 248zM442 794q0 24 17 41.5t42 17.5
t42 -17.5t17 -41.5t-17 -41.5t-42 -17.5t-42 17.5t-17 41.5zM236 794q0 24 17 41.5t42 17.5t42 -17.5t17 -41.5t-17 -41.5t-42 -17.5t-42 17.5t-17 41.5z" />
    <glyph glyph-name="multiply" unicode="&#xd7;" horiz-adv-x="600" 
d="M228 227l-155 156l72 71l155 -156l156 156l71 -71l-155 -156l155 -155l-71 -72l-156 156l-155 -156l-72 72z" />
    <glyph glyph-name="Oslash" unicode="&#xd8;" horiz-adv-x="796" 
d="M241 107l292 496q-52 67 -135 67q-95 0 -150.5 -87t-55.5 -244q0 -146 49 -232zM128 -86l72 123q-81 48 -126.5 128.5t-45.5 173.5q0 145 102 248q106 107 268 107q91 0 167 -37l53 91h50l-65 -111q77 -48 121 -127.5t44 -170.5q0 -145 -102 -248q-106 -107 -268 -107
q-88 0 -160 33l-60 -103h-50zM559 562l-291 -494q51 -60 130 -60q95 0 150.5 87t55.5 244q0 139 -45 223z" />
    <glyph glyph-name="Ugrave" unicode="&#xd9;" horiz-adv-x="704" 
d="M601 504v-297q0 -108 -66.5 -165.5t-175.5 -57.5q-116 0 -186 48.5t-70 127.5v438q0 35 -22 47q-11 6 -42 9q-22 3 -22 13q0 13 20 13q27 0 73.5 -1t65.5 -1t65.5 1t73.5 1q20 0 20 -13q0 -10 -22 -13q-31 -3 -42 -9q-22 -12 -22 -47v-438q0 -61 44 -103.5t107 -42.5
q80 0 128.5 49.5t48.5 137.5v303q0 124 -78 150q-30 10 -30 15q0 11 14 11q11 0 47.5 -1t58.5 -1t58.5 1t47.5 1q14 0 14 -11q0 -5 -30 -15q-78 -26 -78 -150zM449 721h-50l-154 96q-32 20 -32 43q0 18 13 29.5t29 11.5q28 0 52 -26z" />
    <glyph glyph-name="Uacute" unicode="&#xda;" horiz-adv-x="704" 
d="M601 504v-297q0 -108 -66.5 -165.5t-175.5 -57.5q-116 0 -186 48.5t-70 127.5v438q0 35 -22 47q-11 6 -42 9q-22 3 -22 13q0 13 20 13q27 0 73.5 -1t65.5 -1t65.5 1t73.5 1q20 0 20 -13q0 -10 -22 -13q-31 -3 -42 -9q-22 -12 -22 -47v-438q0 -61 44 -103.5t107 -42.5
q80 0 128.5 49.5t48.5 137.5v303q0 124 -78 150q-30 10 -30 15q0 11 14 11q11 0 47.5 -1t58.5 -1t58.5 1t47.5 1q14 0 14 -11q0 -5 -30 -15q-78 -26 -78 -150zM334 721h-50l142 154q24 26 52 26q16 0 29 -11.5t13 -29.5q0 -23 -32 -43z" />
    <glyph glyph-name="Ucircumflex" unicode="&#xdb;" horiz-adv-x="704" 
d="M601 504v-297q0 -108 -66.5 -165.5t-175.5 -57.5q-116 0 -186 48.5t-70 127.5v438q0 35 -22 47q-11 6 -42 9q-22 3 -22 13q0 13 20 13q27 0 73.5 -1t65.5 -1t65.5 1t73.5 1q20 0 20 -13q0 -10 -22 -13q-31 -3 -42 -9q-22 -12 -22 -47v-438q0 -61 44 -103.5t107 -42.5
q80 0 128.5 49.5t48.5 137.5v303q0 124 -78 150q-30 10 -30 15q0 11 14 11q11 0 47.5 -1t58.5 -1t58.5 1t47.5 1q14 0 14 -11q0 -5 -30 -15q-78 -26 -78 -150zM326 895h78l124 -174h-50l-114 102l-114 -102h-50z" />
    <glyph glyph-name="Udieresis" unicode="&#xdc;" horiz-adv-x="704" 
d="M601 504v-297q0 -108 -66.5 -165.5t-175.5 -57.5q-116 0 -186 48.5t-70 127.5v438q0 35 -22 47q-11 6 -42 9q-22 3 -22 13q0 13 20 13q27 0 73.5 -1t65.5 -1t65.5 1t73.5 1q20 0 20 -13q0 -10 -22 -13q-31 -3 -42 -9q-22 -12 -22 -47v-438q0 -61 44 -103.5t107 -42.5
q80 0 128.5 49.5t48.5 137.5v303q0 124 -78 150q-30 10 -30 15q0 11 14 11q11 0 47.5 -1t58.5 -1t58.5 1t47.5 1q14 0 14 -11q0 -5 -30 -15q-78 -26 -78 -150zM413 794q0 24 17 41.5t42 17.5t42 -17.5t17 -41.5t-17 -41.5t-42 -17.5t-42 17.5t-17 41.5zM207 794
q0 24 17 41.5t42 17.5t42 -17.5t17 -41.5t-17 -41.5t-42 -17.5t-42 17.5t-17 41.5z" />
    <glyph glyph-name="Yacute" unicode="&#xdd;" horiz-adv-x="630" 
d="M258 561l118 -221l78 138q36 64 36 118q0 29 -16 45q-9 9 -30 17q-16 6 -16 11q0 11 20 11q15 0 45 -1t51 -1q16 0 47 1t46 1q11 0 11 -10q0 -6 -16 -13q-24 -11 -47 -33q-37 -36 -79 -106l-118 -197v-241q0 -35 22 -47q11 -6 42 -9q22 -3 22 -13q0 -13 -20 -13
q-27 0 -73.5 1t-65.5 1t-65.5 -1t-73.5 -1q-20 0 -20 13q0 10 22 13q31 3 42 9q22 12 22 47v222l-161 293q-19 34 -45 50q-13 8 -38 13q-16 4 -16 11q0 11 17 11q25 0 72 -1t70 -1q24 0 70.5 1t69.5 1q22 0 22 -10q0 -8 -16 -11q-23 -4 -31 -8q-16 -10 -16 -34q0 -22 18 -56
zM279 721h-50l142 154q24 26 52 26q16 0 29 -11.5t13 -29.5q0 -23 -32 -43z" />
    <glyph glyph-name="Thorn" unicode="&#xde;" horiz-adv-x="630" 
d="M258 160v-80q0 -35 22 -47q11 -6 42 -9q22 -3 22 -13q0 -13 -20 -13q-27 0 -73.5 1t-65.5 1t-65.5 -1t-73.5 -1q-20 0 -20 13q0 10 22 13q31 3 42 9q22 12 22 47v518q0 35 -22 47q-11 6 -42 9q-22 3 -22 13q0 13 20 13q27 0 73.5 -1t65.5 -1t65.5 1t73.5 1q20 0 20 -13
q0 -10 -22 -13q-31 -3 -42 -9q-22 -12 -22 -47v-62q29 2 73 2q134 0 210 -56q69 -51 69 -132q0 -89 -67 -138q-71 -52 -210 -52h-75zM258 514v-330h52q79 0 116.5 39.5t37.5 127.5q0 163 -154 163h-52z" />
    <glyph glyph-name="germandbls" unicode="&#xdf;" horiz-adv-x="611" 
d="M98 406h-76q46 37 72 97q19 50 39 101q35 75 72 108q43 40 107 40q61 0 108.5 -46t47.5 -114q0 -53 -33 -87q-14 -14 -62 -43q-33 -20 -33 -39q0 -16 62 -40q78 -31 114 -65q62 -58 62 -155q0 -86 -59 -134q-55 -45 -141 -45q-54 0 -87 27.5t-33 71.5q0 62 55 62
q53 0 53 -51q0 -13 -11 -34.5t-11 -30.5q0 -27 37 -27q59 0 59 151q0 92 -31 149q-15 28 -56 69q-31 29 -31 56q0 23 18 46q25 34 32 50q18 40 18 104q0 107 -85 107q-41 0 -70 -26t-29 -71q0 -24 9 -71.5t9 -72.5v-493h-63q-30 0 -70.5 -1t-50.5 -1q-12 0 -12 12
q0 10 18 12q25 4 34 11q18 13 18 49v324z" />
    <glyph glyph-name="agrave" unicode="&#xe0;" horiz-adv-x="500" 
d="M422 334v-272q0 -28 25 -28q17 0 40 20l16 14q7 0 7 -8q0 -15 -35 -40q-41 -28 -85 -28q-42 0 -62 16t-32 54q-89 -70 -170 -70q-102 0 -102 92q0 47 33 78t126 68l113 45v114q0 51 -39 51q-32 0 -55 -18q-26 -21 -32 -57q-10 -57 -26.5 -79t-54.5 -22q-23 0 -37 15.5
t-14 40.5q0 53 88 98q85 44 175 44q121 0 121 -128zM296 86v169q-77 -30 -107 -56q-33 -30 -33 -75q0 -78 54 -78q42 0 86 40zM324 514h-50l-154 96q-32 20 -32 43q0 18 13 29.5t29 11.5q28 0 52 -26z" />
    <glyph glyph-name="aacute" unicode="&#xe1;" horiz-adv-x="500" 
d="M422 334v-272q0 -28 25 -28q17 0 40 20l16 14q7 0 7 -8q0 -15 -35 -40q-41 -28 -85 -28q-42 0 -62 16t-32 54q-89 -70 -170 -70q-102 0 -102 92q0 47 33 78t126 68l113 45v114q0 51 -39 51q-32 0 -55 -18q-26 -21 -32 -57q-10 -57 -26.5 -79t-54.5 -22q-23 0 -37 15.5
t-14 40.5q0 53 88 98q85 44 175 44q121 0 121 -128zM296 86v169q-77 -30 -107 -56q-33 -30 -33 -75q0 -78 54 -78q42 0 86 40zM214 514h-50l142 154q24 26 52 26q16 0 29 -11.5t13 -29.5q0 -23 -32 -43z" />
    <glyph glyph-name="acircumflex" unicode="&#xe2;" horiz-adv-x="500" 
d="M422 334v-272q0 -28 25 -28q17 0 40 20l16 14q7 0 7 -8q0 -15 -35 -40q-41 -28 -85 -28q-42 0 -62 16t-32 54q-89 -70 -170 -70q-102 0 -102 92q0 47 33 78t126 68l113 45v114q0 51 -39 51q-32 0 -55 -18q-26 -21 -32 -57q-10 -57 -26.5 -79t-54.5 -22q-23 0 -37 15.5
t-14 40.5q0 53 88 98q85 44 175 44q121 0 121 -128zM296 86v169q-77 -30 -107 -56q-33 -30 -33 -75q0 -78 54 -78q42 0 86 40zM206 688h78l124 -174h-50l-114 102l-114 -102h-50z" />
    <glyph glyph-name="atilde" unicode="&#xe3;" horiz-adv-x="500" 
d="M422 334v-272q0 -28 25 -28q17 0 40 20l16 14q7 0 7 -8q0 -15 -35 -40q-41 -28 -85 -28q-42 0 -62 16t-32 54q-89 -70 -170 -70q-102 0 -102 92q0 47 33 78t126 68l113 45v114q0 51 -39 51q-32 0 -55 -18q-26 -21 -32 -57q-10 -57 -26.5 -79t-54.5 -22q-23 0 -37 15.5
t-14 40.5q0 53 88 98q85 44 175 44q121 0 121 -128zM296 86v169q-77 -30 -107 -56q-33 -30 -33 -75q0 -78 54 -78q42 0 86 40zM384 654v0h36q-31 -118 -114 -118q-35 0 -83 24t-65 24q-20 0 -35.5 -13.5t-18.5 -34.5h-36q7 57 41 89q30 29 73 29q30 0 78.5 -24t68.5 -24
q38 0 55 48z" />
    <glyph glyph-name="adieresis" unicode="&#xe4;" horiz-adv-x="500" 
d="M422 334v-272q0 -28 25 -28q17 0 40 20l16 14q7 0 7 -8q0 -15 -35 -40q-41 -28 -85 -28q-42 0 -62 16t-32 54q-89 -70 -170 -70q-102 0 -102 92q0 47 33 78t126 68l113 45v114q0 51 -39 51q-32 0 -55 -18q-26 -21 -32 -57q-10 -57 -26.5 -79t-54.5 -22q-23 0 -37 15.5
t-14 40.5q0 53 88 98q85 44 175 44q121 0 121 -128zM296 86v169q-77 -30 -107 -56q-33 -30 -33 -75q0 -78 54 -78q42 0 86 40zM288 587q0 24 17 41.5t42 17.5t42 -17.5t17 -41.5t-17 -41.5t-42 -17.5t-42 17.5t-17 41.5zM82 587q0 24 17 41.5t42 17.5t42 -17.5t17 -41.5
t-17 -41.5t-42 -17.5t-42 17.5t-17 41.5z" />
    <glyph glyph-name="aring" unicode="&#xe5;" horiz-adv-x="500" 
d="M422 334v-272q0 -28 25 -28q17 0 40 20l16 14q7 0 7 -8q0 -15 -35 -40q-41 -28 -85 -28q-42 0 -62 16t-32 54q-89 -70 -170 -70q-102 0 -102 92q0 47 33 78t126 68l113 45v114q0 51 -39 51q-32 0 -55 -18q-26 -21 -32 -57q-10 -57 -26.5 -79t-54.5 -22q-23 0 -37 15.5
t-14 40.5q0 53 88 98q85 44 175 44q121 0 121 -128zM296 86v169q-77 -30 -107 -56q-33 -30 -33 -75q0 -78 54 -78q42 0 86 40zM142 618q0 44 29 73t73 29t73 -29t29 -73t-29 -73t-73 -29t-73 29t-29 73zM184 618q0 -25 17.5 -42.5t42.5 -17.5t42.5 17.5t17.5 42.5
t-17.5 42.5t-42.5 17.5t-42.5 -17.5t-17.5 -42.5z" />
    <glyph glyph-name="ae" unicode="&#xe6;" horiz-adv-x="759" 
d="M286 86v170q-77 -26 -108 -55q-34 -30 -34 -76q0 -79 57 -79q41 0 85 40zM734 252h-322q1 -87 51 -137q46 -45 114 -45q75 0 122 52q11 12 19 28q6 11 10 11q6 0 6 -7q0 -42 -44 -92q-61 -70 -167 -70q-139 0 -194 114q-105 -114 -215 -114q-102 0 -102 92q0 47 33 78.5
t126 67.5l115 45v114q0 51 -41 51q-32 0 -55 -18q-26 -21 -32 -57q-10 -57 -26.5 -79t-54.5 -22q-23 0 -37 15.5t-14 40.5q0 53 88 98q85 44 175 44q67 0 109 -38q57 38 125 38q88 0 146 -53q62 -57 65 -157zM412 276h202q-1 94 -26 134q-21 34 -66 34q-50 0 -79.5 -44.5
t-30.5 -123.5z" />
    <glyph glyph-name="ccedilla" unicode="&#xe7;" horiz-adv-x="481" 
d="M33 218q0 105 65.5 174.5t166.5 69.5q82 0 137 -46q49 -43 49 -98q0 -70 -59 -70t-57 76q2 54 2 45q-2 75 -80 75q-50 0 -80 -43t-30 -113q0 -104 49 -164q44 -54 108 -54q54 0 90 24q23 16 40 44q14 24 16 24q8 0 8 -8q0 -39 -41 -90q-59 -72 -160 -72q-102 0 -165 69
q-59 64 -59 157zM223 0h42l-32 -66q11 4 35 4q37 0 61 -17.5t24 -49.5q0 -89 -128 -89q-43 0 -92 14l16 36q38 -12 60 -12q60 0 60 41q0 17 -14 28t-34 11q-17 0 -28 -4l-12 8z" />
    <glyph glyph-name="egrave" unicode="&#xe8;" horiz-adv-x="500" 
d="M467 252h-320q1 -87 51 -137q45 -45 112 -45q75 0 122 52q11 12 19 28q6 11 10 11q6 0 6 -7q0 -42 -44 -92q-61 -70 -167 -70q-101 0 -162 65.5t-61 172.5q0 99 63.5 165.5t159.5 66.5q88 0 146 -53q62 -57 65 -157zM147 276h200q-1 94 -26 134q-21 34 -66 34
q-48 0 -77.5 -44.5t-30.5 -123.5zM342 514h-50l-154 96q-32 20 -32 43q0 18 13 29.5t29 11.5q28 0 52 -26z" />
    <glyph glyph-name="eacute" unicode="&#xe9;" horiz-adv-x="500" 
d="M467 252h-320q1 -87 51 -137q45 -45 112 -45q75 0 122 52q11 12 19 28q6 11 10 11q6 0 6 -7q0 -42 -44 -92q-61 -70 -167 -70q-101 0 -162 65.5t-61 172.5q0 99 63.5 165.5t159.5 66.5q88 0 146 -53q62 -57 65 -157zM147 276h200q-1 94 -26 134q-21 34 -66 34
q-48 0 -77.5 -44.5t-30.5 -123.5zM232 514h-50l142 154q24 26 52 26q16 0 29 -11.5t13 -29.5q0 -23 -32 -43z" />
    <glyph glyph-name="ecircumflex" unicode="&#xea;" horiz-adv-x="500" 
d="M467 252h-320q1 -87 51 -137q45 -45 112 -45q75 0 122 52q11 12 19 28q6 11 10 11q6 0 6 -7q0 -42 -44 -92q-61 -70 -167 -70q-101 0 -162 65.5t-61 172.5q0 99 63.5 165.5t159.5 66.5q88 0 146 -53q62 -57 65 -157zM147 276h200q-1 94 -26 134q-21 34 -66 34
q-48 0 -77.5 -44.5t-30.5 -123.5zM224 688h78l124 -174h-50l-114 102l-114 -102h-50z" />
    <glyph glyph-name="edieresis" unicode="&#xeb;" horiz-adv-x="500" 
d="M467 252h-320q1 -87 51 -137q45 -45 112 -45q75 0 122 52q11 12 19 28q6 11 10 11q6 0 6 -7q0 -42 -44 -92q-61 -70 -167 -70q-101 0 -162 65.5t-61 172.5q0 99 63.5 165.5t159.5 66.5q88 0 146 -53q62 -57 65 -157zM147 276h200q-1 94 -26 134q-21 34 -66 34
q-48 0 -77.5 -44.5t-30.5 -123.5zM306 587q0 24 17 41.5t42 17.5t42 -17.5t17 -41.5t-17 -41.5t-42 -17.5t-42 17.5t-17 41.5zM100 587q0 24 17 41.5t42 17.5t42 -17.5t17 -41.5t-17 -41.5t-42 -17.5t-42 17.5t-17 41.5z" />
    <glyph glyph-name="igrave" unicode="&#xec;" horiz-adv-x="296" 
d="M211 462v-382q0 -35 21 -48q11 -7 40 -10q21 -3 21 -12q0 -12 -12 -12q-13 0 -58.5 1t-74.5 1t-74.5 -1t-58.5 -1q-12 0 -12 12q0 9 21 12q29 3 40 10q21 13 21 48v247q0 30 -21 45q-11 9 -38 17q-21 6 -21 13q0 9 41 17q80 16 165 43zM228 514h-50l-154 96
q-32 20 -32 43q0 18 13 29.5t29 11.5q28 0 52 -26z" />
    <glyph glyph-name="iacute" unicode="&#xed;" horiz-adv-x="296" 
d="M211 462v-382q0 -35 21 -48q11 -7 40 -10q21 -3 21 -12q0 -12 -12 -12q-13 0 -58.5 1t-74.5 1t-74.5 -1t-58.5 -1q-12 0 -12 12q0 9 21 12q29 3 40 10q21 13 21 48v247q0 30 -21 45q-11 9 -38 17q-21 6 -21 13q0 9 41 17q80 16 165 43zM118 514h-50l142 154q24 26 52 26
q16 0 29 -11.5t13 -29.5q0 -23 -32 -43z" />
    <glyph glyph-name="icircumflex" unicode="&#xee;" horiz-adv-x="296" 
d="M211 462v-382q0 -35 21 -48q11 -7 40 -10q21 -3 21 -12q0 -12 -12 -12q-13 0 -58.5 1t-74.5 1t-74.5 -1t-58.5 -1q-12 0 -12 12q0 9 21 12q29 3 40 10q21 13 21 48v247q0 30 -21 45q-11 9 -38 17q-21 6 -21 13q0 9 41 17q80 16 165 43zM110 688h78l124 -174h-50l-114 102
l-114 -102h-50z" />
    <glyph glyph-name="idieresis" unicode="&#xef;" horiz-adv-x="296" 
d="M211 462v-382q0 -35 21 -48q11 -7 40 -10q21 -3 21 -12q0 -12 -12 -12q-13 0 -58.5 1t-74.5 1t-74.5 -1t-58.5 -1q-12 0 -12 12q0 9 21 12q29 3 40 10q21 13 21 48v247q0 30 -21 45q-11 9 -38 17q-21 6 -21 13q0 9 41 17q80 16 165 43zM192 587q0 24 17 41.5t42 17.5
t42 -17.5t17 -41.5t-17 -41.5t-42 -17.5t-42 17.5t-17 41.5zM-14 587q0 24 17 41.5t42 17.5t42 -17.5t17 -41.5t-17 -41.5t-42 -17.5t-42 17.5t-17 41.5z" />
    <glyph glyph-name="eth" unicode="&#xf0;" horiz-adv-x="574" 
d="M171 227q0 -217 116 -217t116 217t-116 217t-116 -217zM289 588l-143 -82v40l120 68q-2 3 -8 9q-41 42 -78 64q-20 13 -45 22q-14 6 -14 11q0 10 11 10q85 0 196 -80l140 80v-40l-111 -63q188 -158 188 -377q0 -122 -78 -193q-72 -65 -180 -65q-112 0 -185 69t-73 166
t73 166t185 69q42 0 76 -10q-18 68 -74 136z" />
    <glyph glyph-name="ntilde" unicode="&#xf1;" 
d="M208 462v-73q65 41 96 54q44 19 91 19q50 0 82.5 -29t32.5 -85v-268q0 -35 18 -48q9 -7 34 -10q18 -3 18 -12q0 -12 -12 -12q-10 0 -50.5 1t-70.5 1t-70.5 -1t-50.5 -1q-12 0 -12 12q0 9 18 12q25 3 34 10q18 13 18 48v262q0 72 -64 72q-42 0 -112 -48v-286q0 -35 18 -48
q9 -7 34 -10q18 -3 18 -12q0 -12 -12 -12q-10 0 -50.5 1t-70.5 1t-70.5 -1t-50.5 -1q-12 0 -12 12q0 9 18 12q25 3 34 10q18 13 18 48v251q0 30 -18 46q-11 10 -34 17q-18 6 -18 12q0 10 36 17q80 15 160 39zM437 654v0h36q-31 -118 -114 -118q-35 0 -83 24t-65 24
q-20 0 -35.5 -13.5t-18.5 -34.5h-36q7 57 41 89q30 29 73 29q30 0 78.5 -24t68.5 -24q38 0 55 48z" />
    <glyph glyph-name="ograve" unicode="&#xf2;" horiz-adv-x="574" 
d="M29 227q0 97 73 166t185 69t185 -69t73 -166t-73 -166t-185 -69t-185 69t-73 166zM171 227q0 -217 116 -217t116 217t-116 217t-116 -217zM367 514h-50l-154 96q-32 20 -32 43q0 18 13 29.5t29 11.5q28 0 52 -26z" />
    <glyph glyph-name="oacute" unicode="&#xf3;" horiz-adv-x="574" 
d="M29 227q0 97 73 166t185 69t185 -69t73 -166t-73 -166t-185 -69t-185 69t-73 166zM171 227q0 -217 116 -217t116 217t-116 217t-116 -217zM257 514h-50l142 154q24 26 52 26q16 0 29 -11.5t13 -29.5q0 -23 -32 -43z" />
    <glyph glyph-name="ocircumflex" unicode="&#xf4;" horiz-adv-x="574" 
d="M29 227q0 97 73 166t185 69t185 -69t73 -166t-73 -166t-185 -69t-185 69t-73 166zM171 227q0 -217 116 -217t116 217t-116 217t-116 -217zM249 688h78l124 -174h-50l-114 102l-114 -102h-50z" />
    <glyph glyph-name="otilde" unicode="&#xf5;" horiz-adv-x="574" 
d="M29 227q0 97 73 166t185 69t185 -69t73 -166t-73 -166t-185 -69t-185 69t-73 166zM171 227q0 -217 116 -217t116 217t-116 217t-116 -217zM427 654v0h36q-31 -118 -114 -118q-35 0 -83 24t-65 24q-20 0 -35.5 -13.5t-18.5 -34.5h-36q7 57 41 89q30 29 73 29
q30 0 78.5 -24t68.5 -24q38 0 55 48z" />
    <glyph glyph-name="odieresis" unicode="&#xf6;" horiz-adv-x="574" 
d="M29 227q0 97 73 166t185 69t185 -69t73 -166t-73 -166t-185 -69t-185 69t-73 166zM171 227q0 -217 116 -217t116 217t-116 217t-116 -217zM331 587q0 24 17 41.5t42 17.5t42 -17.5t17 -41.5t-17 -41.5t-42 -17.5t-42 17.5t-17 41.5zM125 587q0 24 17 41.5t42 17.5
t42 -17.5t17 -41.5t-17 -41.5t-42 -17.5t-42 17.5t-17 41.5z" />
    <glyph glyph-name="divide" unicode="&#xf7;" horiz-adv-x="600" 
d="M527 176h-454v102h454v-102zM228 416q0 30 21.5 51.5t51.5 21.5q31 0 52 -21.5t21 -51.5q0 -31 -21 -52t-52 -21q-30 0 -51.5 21t-21.5 52zM228 38q0 30 21.5 51.5t51.5 21.5q31 0 52 -21.5t21 -51.5q0 -31 -21 -52t-52 -21q-30 0 -51.5 21t-21.5 52z" />
    <glyph glyph-name="oslash" unicode="&#xf8;" horiz-adv-x="574" 
d="M187 96l178 309q-30 39 -78 39q-116 0 -116 -217q0 -81 16 -131zM386 362l-178 -310q27 -42 79 -42q116 0 116 217q0 86 -17 135zM184 11l-49 -85h-46l59 102q-56 31 -87.5 84t-31.5 115q0 97 73 166t185 69q55 0 100 -18l38 66h46l-48 -83q57 -31 89.5 -84t32.5 -116
q0 -97 -73 -166t-185 -69q-59 0 -103 19z" />
    <glyph glyph-name="ugrave" unicode="&#xf9;" 
d="M510 462v-339q0 -30 18 -46q11 -10 34 -17q18 -6 18 -12q0 -10 -36 -17q-80 -15 -160 -39v78q-45 -39 -77 -55q-46 -23 -104 -23q-121 0 -121 110v229q0 30 -18 46q-11 10 -34 17q-18 6 -18 12q0 10 36 17q80 15 160 39v-354q0 -68 67 -68q60 0 109 58v233q0 30 -18 46
q-11 10 -34 17q-18 6 -18 12q0 10 36 17q80 15 160 39zM377 514h-50l-154 96q-32 20 -32 43q0 18 13 29.5t29 11.5q28 0 52 -26z" />
    <glyph glyph-name="uacute" unicode="&#xfa;" 
d="M510 462v-339q0 -30 18 -46q11 -10 34 -17q18 -6 18 -12q0 -10 -36 -17q-80 -15 -160 -39v78q-45 -39 -77 -55q-46 -23 -104 -23q-121 0 -121 110v229q0 30 -18 46q-11 10 -34 17q-18 6 -18 12q0 10 36 17q80 15 160 39v-354q0 -68 67 -68q60 0 109 58v233q0 30 -18 46
q-11 10 -34 17q-18 6 -18 12q0 10 36 17q80 15 160 39zM267 514h-50l142 154q24 26 52 26q16 0 29 -11.5t13 -29.5q0 -23 -32 -43z" />
    <glyph glyph-name="ucircumflex" unicode="&#xfb;" 
d="M510 462v-339q0 -30 18 -46q11 -10 34 -17q18 -6 18 -12q0 -10 -36 -17q-80 -15 -160 -39v78q-45 -39 -77 -55q-46 -23 -104 -23q-121 0 -121 110v229q0 30 -18 46q-11 10 -34 17q-18 6 -18 12q0 10 36 17q80 15 160 39v-354q0 -68 67 -68q60 0 109 58v233q0 30 -18 46
q-11 10 -34 17q-18 6 -18 12q0 10 36 17q80 15 160 39zM259 688h78l124 -174h-50l-114 102l-114 -102h-50z" />
    <glyph glyph-name="udieresis" unicode="&#xfc;" 
d="M510 462v-339q0 -30 18 -46q11 -10 34 -17q18 -6 18 -12q0 -10 -36 -17q-80 -15 -160 -39v78q-45 -39 -77 -55q-46 -23 -104 -23q-121 0 -121 110v229q0 30 -18 46q-11 10 -34 17q-18 6 -18 12q0 10 36 17q80 15 160 39v-354q0 -68 67 -68q60 0 109 58v233q0 30 -18 46
q-11 10 -34 17q-18 6 -18 12q0 10 36 17q80 15 160 39zM341 587q0 24 17 41.5t42 17.5t42 -17.5t17 -41.5t-17 -41.5t-42 -17.5t-42 17.5t-17 41.5zM135 587q0 24 17 41.5t42 17.5t42 -17.5t17 -41.5t-17 -41.5t-42 -17.5t-42 17.5t-17 41.5z" />
    <glyph glyph-name="yacute" unicode="&#xfd;" horiz-adv-x="500" 
d="M244 -6l-173 386q-14 32 -34 45q-9 5 -29 10q-12 3 -12 12t16 9q19 0 56 -1t55 -1t54.5 1t54.5 1q12 0 12 -9q0 -4 -22 -12t-22 -29q0 -8 14 -40l96 -218l55 129q19 45 19 89q0 37 -18 54q-11 10 -34 15q-18 4 -18 11q0 10 12 10q15 0 45 -1t45 -1t45 1t45 1q10 0 10 -8
t-10 -11q-18 -6 -29 -14q-39 -28 -77 -116l-193 -447q-31 -72 -89 -72q-28 0 -48 19t-20 46q0 61 57 61q31 0 50 -29q5 -9 11 -19q4 -6 10 -6q12 0 22 25zM220 514h-50l142 154q24 26 52 26q16 0 29 -11.5t13 -29.5q0 -23 -32 -43z" />
    <glyph glyph-name="thorn" unicode="&#xfe;" 
d="M205 730v-350l2 -1q70 83 169 83q81 0 136 -68q52 -65 52 -152q0 -103 -72 -175q-75 -75 -188 -75q-43 0 -99 16v-120q0 -35 21 -48q11 -7 40 -10q21 -3 21 -12q0 -12 -12 -12q-13 0 -58.5 1t-74.5 1t-74.5 -1t-58.5 -1q-12 0 -12 12q0 9 21 12q29 3 40 10q21 13 21 48
v707q0 30 -21 45q-11 9 -38 17q-21 6 -21 13q0 9 41 17q80 16 165 43zM205 354v-238q0 -46 26 -76t68 -30q59 0 94 45q39 51 39 149q0 89 -42 145q-40 53 -100 53q-45 0 -85 -48z" />
    <glyph glyph-name="ydieresis" unicode="&#xff;" horiz-adv-x="500" 
d="M244 -6l-173 386q-14 32 -34 45q-9 5 -29 10q-12 3 -12 12t16 9q19 0 56 -1t55 -1t54.5 1t54.5 1q12 0 12 -9q0 -4 -22 -12t-22 -29q0 -8 14 -40l96 -218l55 129q19 45 19 89q0 37 -18 54q-11 10 -34 15q-18 4 -18 11q0 10 12 10q15 0 45 -1t45 -1t45 1t45 1q10 0 10 -8
t-10 -11q-18 -6 -29 -14q-39 -28 -77 -116l-193 -447q-31 -72 -89 -72q-28 0 -48 19t-20 46q0 61 57 61q31 0 50 -29q5 -9 11 -19q4 -6 10 -6q12 0 22 25zM300 587q0 24 17 41.5t42 17.5t42 -17.5t17 -41.5t-17 -41.5t-42 -17.5t-42 17.5t-17 41.5zM94 587q0 24 17 41.5
t42 17.5t42 -17.5t17 -41.5t-17 -41.5t-42 -17.5t-42 17.5t-17 41.5z" />
    <glyph glyph-name="dotlessi" unicode="&#x131;" horiz-adv-x="296" 
d="M211 462v-382q0 -35 21 -48q11 -7 40 -10q21 -3 21 -12q0 -12 -12 -12q-13 0 -58.5 1t-74.5 1t-74.5 -1t-58.5 -1q-12 0 -12 12q0 9 21 12q29 3 40 10q21 13 21 48v247q0 30 -21 45q-11 9 -38 17q-21 6 -21 13q0 9 41 17q80 16 165 43z" />
    <glyph glyph-name="Lslash" unicode="&#x141;" horiz-adv-x="630" 
d="M458 434l-200 -81v-261q0 -36 18 -53t64 -17q85 0 152 61q63 58 92 149q9 28 16 28q10 0 10 -11q0 -9 -4 -29l-44 -222q-210 2 -377 2q-19 0 -65.5 -1t-73.5 -1q-20 0 -20 13q0 10 22 13q31 3 42 9q22 12 22 47v214l-112 -46v44l112 46v260q0 35 -22 47q-11 6 -42 9
q-22 3 -22 13q0 13 20 13q27 0 73.5 -1t65.5 -1t65.5 1t73.5 1q20 0 20 -13q0 -10 -22 -13q-31 -3 -42 -9q-22 -12 -22 -47v-200l200 82v-46z" />
    <glyph glyph-name="lslash" unicode="&#x142;" horiz-adv-x="296" 
d="M312 452l-101 -53v-319q0 -35 21 -48q11 -7 40 -10q21 -3 21 -12q0 -12 -12 -12q-13 0 -58.5 1t-74.5 1t-74.5 -1t-58.5 -1q-12 0 -12 12q0 9 21 12q29 3 40 10q21 13 21 48v253l-101 -53v44l101 53v218q0 30 -21 45q-11 9 -38 17q-21 6 -21 13q0 9 41 17q80 16 165 43
v-287l101 53v-44z" />
    <glyph glyph-name="OE" unicode="&#x152;" horiz-adv-x="1130" 
d="M596 -2v42q-66 -31 -92 -40q-49 -16 -108 -16q-161 0 -266 107q-102 103 -102 248t102 248q105 107 266 107q59 0 108 -16q26 -9 92 -40v42q150 -2 216 -2q65 0 217 2l50 -191q6 -23 6 -26q0 -8 -10 -8q-5 0 -12 17q-16 33 -35 65q-72 119 -232 119h-54v-288h25
q52 0 87 35t38 89q1 25 14 25q10 0 10 -14v-306q0 -14 -10 -14q-13 0 -14 25q-3 65 -37 100.5t-88 35.5h-25v-252q0 -36 18 -53t64 -17q107 0 182 68q62 56 89 142q9 28 16 28q10 0 10 -11q0 -9 -4 -29l-44 -222q-156 2 -236 2q-75 0 -241 -2zM192 339q0 -156 55 -243.5
t149 -87.5q197 0 200 331t-200 331q-94 0 -148 -86q-56 -89 -56 -245z" />
    <glyph glyph-name="oe" unicode="&#x153;" horiz-adv-x="889" 
d="M171 227q0 -217 122 -217q123 0 123 217t-123 217q-122 0 -122 -217zM856 252h-320q1 -87 51 -137q45 -45 112 -45q75 0 122 52q11 12 19 28q6 11 10 11q6 0 6 -7q0 -42 -44 -92q-61 -70 -167 -70t-166 71q-74 -71 -186 -71q-116 0 -191 70q-73 67 -73 165t74 166.5
t190 68.5q114 0 188 -72q64 72 164 72q88 0 146 -53q62 -57 65 -157zM536 276h200q-1 94 -26 134q-21 34 -66 34q-48 0 -77.5 -44.5t-30.5 -123.5z" />
    <glyph glyph-name="Scaron" unicode="&#x160;" 
d="M52 5v278q0 15 10 15q7 0 14 -36q48 -254 220 -254q75 0 117.5 35t42.5 94q0 83 -104 126q-96 34 -192 69q-104 51 -104 156q0 88 65 147t159 59q55 0 110.5 -20t61.5 -20q20 0 25.5 14t12.5 14q10 0 12 -18l18 -189q3 -32 3 -33q0 -10 -8 -10q-6 0 -11 15q-15 44 -16 46
q-36 90 -79 130q-51 47 -130 47q-127 0 -127 -107q0 -65 105 -102q190 -66 196 -69q105 -57 105 -173q0 -100 -75 -167.5t-188 -67.5q-57 0 -115 23t-70 23q-22 0 -33 -17t-17 -17q-8 0 -8 9zM331 721h-78l-126 174h50l114 -102l114 102h50z" />
    <glyph glyph-name="scaron" unicode="&#x161;" horiz-adv-x="426" 
d="M40 21v148q0 9 8 9q5 0 9 -10q10 -26 14 -35q57 -123 148 -123t91 75q0 45 -69 75q-65 26 -130 53q-69 41 -69 115q0 55 47 94.5t126 39.5q91 0 149 -38v-115q0 -7 -6 -7q-4 0 -10 13q-10 24 -17 38q-50 91 -129 91q-70 0 -70 -62q0 -40 69 -66q124 -47 130 -50
q69 -40 69 -112q0 -77 -52.5 -119.5t-138.5 -42.5q-88 0 -169 29zM253 514h-78l-126 174h50l114 -102l114 102h50z" />
    <glyph glyph-name="Ydieresis" unicode="&#x178;" horiz-adv-x="630" 
d="M258 561l118 -221l78 138q36 64 36 118q0 29 -16 45q-9 9 -30 17q-16 6 -16 11q0 11 20 11q15 0 45 -1t51 -1q16 0 47 1t46 1q11 0 11 -10q0 -6 -16 -13q-24 -11 -47 -33q-37 -36 -79 -106l-118 -197v-241q0 -35 22 -47q11 -6 42 -9q22 -3 22 -13q0 -13 -20 -13
q-27 0 -73.5 1t-65.5 1t-65.5 -1t-73.5 -1q-20 0 -20 13q0 10 22 13q31 3 42 9q22 12 22 47v222l-161 293q-19 34 -45 50q-13 8 -38 13q-16 4 -16 11q0 11 17 11q25 0 72 -1t70 -1q24 0 70.5 1t69.5 1q22 0 22 -10q0 -8 -16 -11q-23 -4 -31 -8q-16 -10 -16 -34q0 -22 18 -56
zM371 794q0 24 17 41.5t42 17.5t42 -17.5t17 -41.5t-17 -41.5t-42 -17.5t-42 17.5t-17 41.5zM165 794q0 24 17 41.5t42 17.5t42 -17.5t17 -41.5t-17 -41.5t-42 -17.5t-42 17.5t-17 41.5z" />
    <glyph glyph-name="Zcaron" unicode="&#x17d;" 
d="M184 22h82q147 0 227 115q23 33 40 85q12 38 20 38q9 0 9 -11q0 -4 -7 -40l-41 -211q-160 2 -244 2q-41 0 -123 -1t-123 -1q-12 0 -12 9q0 6 11 24l373 625h-60q-157 0 -230 -119q-22 -35 -35 -67q-7 -15 -13 -15q-8 0 -8 8q0 3 6 26l50 191q36 0 109 -1t110 -1t111 1
t112 1q16 0 16 -8q0 -5 -15 -30zM349 721h-78l-126 174h50l114 -102l114 102h50z" />
    <glyph glyph-name="zcaron" unicode="&#x17e;" horiz-adv-x="500" 
d="M298 438h-8q-115 0 -192 -93q-27 -33 -39 -63q-7 -18 -13 -18t-6 6q0 7 7 34l39 152q124 -2 184 -2q56 0 190 2l-284 -440h8q76 0 140 43q59 41 95 109q11 21 22 52q6 18 12 18q7 0 7 -6t-6 -36l-40 -198q-132 2 -199 2t-199 -2zM296 514h-78l-126 174h50l114 -102
l114 102h50z" />
    <glyph glyph-name="florin" unicode="&#x192;" 
d="M492 454l-18 -54h-92q-35 -212 -87 -356q-92 -256 -220 -256q-85 0 -85 73q0 27 16.5 43t42.5 16q31 0 47 -20q10 -19 21 -38.5t31 -19.5q41 0 55 87q3 20 16 211q10 158 37 260h-64q38 25 98 121q73 119 105 155q68 76 141 76q33 0 60.5 -23t27.5 -53q0 -27 -18 -45.5
t-44 -18.5q-44 0 -52.5 49t-39.5 49q-40 0 -56 -50q-18 -54 -24 -206h102z" />
    <glyph glyph-name="circumflex" unicode="&#x2c6;" horiz-adv-x="296" 
d="M110 688h78l124 -174h-50l-114 102l-114 -102h-50z" />
    <glyph glyph-name="caron" unicode="&#x2c7;" horiz-adv-x="296" 
d="M188 514h-78l-126 174h50l114 -102l114 102h50z" />
    <glyph glyph-name="breve" unicode="&#x2d8;" horiz-adv-x="296" 
d="M256 678h40q0 -68 -42.5 -116t-105.5 -48q-74 0 -113 48q-35 44 -35 116h40q2 -41 29 -66q29 -28 79 -28q47 0 76.5 27t31.5 67z" />
    <glyph glyph-name="dotaccent" unicode="&#x2d9;" horiz-adv-x="296" 
d="M89 587q0 24 17 41.5t42 17.5t42 -17.5t17 -41.5t-17 -41.5t-42 -17.5t-42 17.5t-17 41.5z" />
    <glyph glyph-name="ring" unicode="&#x2da;" horiz-adv-x="296" 
d="M46 618q0 44 29 73t73 29t73 -29t29 -73t-29 -73t-73 -29t-73 29t-29 73zM88 618q0 -25 17.5 -42.5t42.5 -17.5t42.5 17.5t17.5 42.5t-17.5 42.5t-42.5 17.5t-42.5 -17.5t-17.5 -42.5z" />
    <glyph glyph-name="ogonek" unicode="&#x2db;" horiz-adv-x="296" 
d="M258 20v-12q-64 -20 -106.5 -54t-42.5 -69q0 -20 15 -34.5t34 -14.5q39 0 102 40l18 -32q-51 -32 -71 -42q-42 -20 -81 -20q-44 0 -72.5 27t-28.5 61q0 110 233 150z" />
    <glyph glyph-name="tilde" unicode="&#x2dc;" horiz-adv-x="296" 
d="M288 654v0h36q-31 -118 -114 -118q-35 0 -83 24t-65 24q-20 0 -35.5 -13.5t-18.5 -34.5h-36q7 57 41 89q30 29 73 29q30 0 78.5 -24t68.5 -24q38 0 55 48z" />
    <glyph glyph-name="hungarumlaut" unicode="&#x2dd;" horiz-adv-x="296" 
d="M38 514h-46l135 153q24 27 47 27q16 0 29 -11.5t13 -29.5q0 -22 -32 -43zM198 514h-50l142 154q24 26 52 26q16 0 29 -11.5t13 -29.5q0 -23 -32 -43z" />
    <glyph glyph-name="mu" unicode="&#x3bc;" 
d="M208 462v-354q0 -68 67 -68q60 0 109 58v233q0 30 -18 46q-11 10 -34 17q-18 6 -18 12q0 10 36 17q80 15 160 39v-339q0 -30 18 -46q11 -10 34 -17q18 -6 18 -12q0 -10 -36 -17q-80 -15 -160 -39v78q-84 -76 -174 -78q0 -15 2 -48.5t2 -53.5q0 -102 -70 -102
q-68 0 -68 102q0 33 3 110.5t3 133.5v197q0 30 -18 46q-11 10 -34 17q-18 6 -18 12q0 10 36 17q80 15 160 39z" />
    <glyph glyph-name="endash" unicode="&#x2013;" horiz-adv-x="500" 
d="M0 188v78h500v-78h-500z" />
    <glyph glyph-name="emdash" unicode="&#x2014;" horiz-adv-x="1000" 
d="M0 188v78h1000v-78h-1000z" />
    <glyph glyph-name="quoteleft" unicode="&#x2018;" horiz-adv-x="241" 
d="M41 576q0 64 50 118q42 44 65 44q6 0 6 -6q0 -4 -9 -10q-15 -11 -27 -23q-36 -36 -37 -89q42 6 41 6q71 0 71 -71q0 -34 -20 -54.5t-53 -20.5q-36 0 -61.5 29t-25.5 77z" />
    <glyph glyph-name="quoteright" unicode="&#x2019;" horiz-adv-x="241" 
d="M200 624q0 -64 -50 -118q-42 -44 -65 -44q-6 0 -6 6q0 4 9 10q15 11 27 23q36 36 37 89q-42 -6 -41 -6q-71 0 -71 71q0 34 20 54.5t53 20.5q36 0 61.5 -29t25.5 -77z" />
    <glyph glyph-name="quotesinglbase" unicode="&#x201a;" horiz-adv-x="241" 
d="M200 32q0 -64 -50 -118q-42 -44 -65 -44q-6 0 -6 6q0 4 9 10q15 11 27 23q36 36 37 89q-42 -6 -41 -6q-71 0 -71 71q0 34 20 54.5t53 20.5q36 0 61.5 -29t25.5 -77z" />
    <glyph glyph-name="quotedblleft" unicode="&#x201c;" horiz-adv-x="444" 
d="M31 576q0 64 50 118q42 44 65 44q6 0 6 -6q0 -4 -9 -10q-15 -11 -27 -23q-36 -36 -37 -89q42 6 41 6q71 0 71 -71q0 -34 -20 -54.5t-53 -20.5q-36 0 -61.5 29t-25.5 77zM254 576q0 64 50 118q42 44 65 44q6 0 6 -6q0 -4 -9 -10q-15 -11 -27 -23q-36 -36 -37 -89
q42 6 41 6q71 0 71 -71q0 -34 -20 -54.5t-53 -20.5q-36 0 -61.5 29t-25.5 77z" />
    <glyph glyph-name="quotedblright" unicode="&#x201d;" horiz-adv-x="444" 
d="M413 624q0 -64 -50 -118q-42 -44 -65 -44q-6 0 -6 6q0 4 9 10q15 11 27 23q36 36 37 89q-42 -6 -41 -6q-71 0 -71 71q0 34 20 54.5t53 20.5q36 0 61.5 -29t25.5 -77zM190 624q0 -64 -50 -118q-42 -44 -65 -44q-6 0 -6 6q0 4 9 10q15 11 27 23q36 36 37 89q-42 -6 -41 -6
q-71 0 -71 71q0 34 20 54.5t53 20.5q36 0 61.5 -29t25.5 -77z" />
    <glyph glyph-name="quotedblbase" unicode="&#x201e;" horiz-adv-x="444" 
d="M413 32q0 -64 -50 -118q-42 -44 -65 -44q-6 0 -6 6q0 4 9 10q15 11 27 23q36 36 37 89q-42 -6 -41 -6q-71 0 -71 71q0 34 20 54.5t53 20.5q36 0 61.5 -29t25.5 -77zM190 32q0 -64 -50 -118q-42 -44 -65 -44q-6 0 -6 6q0 4 9 10q15 11 27 23q36 36 37 89q-42 -6 -41 -6
q-71 0 -71 71q0 34 20 54.5t53 20.5q36 0 61.5 -29t25.5 -77z" />
    <glyph glyph-name="dagger" unicode="&#x2020;" horiz-adv-x="500" 
d="M268 -106h-36q0 220 -11 315q-10 88 -35 111q19 17 32.5 48t13.5 51q0 27 -23 27q-9 0 -48 -21t-60 -21q-59 0 -59 60t62 60q22 0 58 -21t53 -21t17 17q0 15 -24 57.5t-24 71.5q0 30 19 48t47 18t47 -18t19 -48q0 -29 -24 -71.5t-24 -57.5q0 -17 17 -17t53 21t58 21
q62 0 62 -60t-59 -60q-21 0 -60 21t-48 21q-23 0 -23 -27q0 -20 13.5 -51t32.5 -48q-25 -23 -35 -111q-11 -95 -11 -315z" />
    <glyph glyph-name="daggerdbl" unicode="&#x2021;" horiz-adv-x="500" 
d="M278 285q0 -34 24 -70q-34 -34 -34 -67q0 -24 23 -24q9 0 47.5 21t60.5 21q59 0 59 -60t-62 -60q-22 0 -58 21t-53 21t-17 -17q0 -15 24 -57.5t24 -71.5q0 -30 -19 -48t-47 -18t-47 18t-19 48q0 29 24 71.5t24 57.5q0 17 -17 17t-53 -21t-58 -21q-62 0 -62 60t59 60
q22 0 60.5 -21t47.5 -21q23 0 23 24q0 33 -34 67q24 36 24 70t-24 70q34 34 34 67q0 24 -23 24q-9 0 -48 -21t-60 -21q-59 0 -59 60t62 60q22 0 58 -21t53 -21t17 17q0 15 -24 57.5t-24 71.5q0 30 19 48t47 18t47 -18t19 -48q0 -29 -24 -71.5t-24 -57.5q0 -17 17 -17t53 21
t58 21q62 0 62 -60t-59 -60q-21 0 -60 21t-48 21q-23 0 -23 -24q0 -33 34 -67q-24 -36 -24 -70z" />
    <glyph glyph-name="bullet" unicode="&#x2022;" horiz-adv-x="500" 
d="M81 339q0 70 49.5 119.5t119.5 49.5t119.5 -49.5t49.5 -119.5t-49.5 -119.5t-119.5 -49.5t-119.5 49.5t-49.5 119.5z" />
    <glyph glyph-name="ellipsis" unicode="&#x2026;" horiz-adv-x="1000" 
d="M93 65q0 30 21.5 51.5t51.5 21.5q31 0 52 -21.5t21 -51.5q0 -31 -21 -52t-52 -21q-30 0 -51.5 21t-21.5 52zM427 65q0 30 21.5 51.5t51.5 21.5q31 0 52 -21.5t21 -51.5q0 -31 -21 -52t-52 -21q-30 0 -51.5 21t-21.5 52zM761 65q0 30 21.5 51.5t51.5 21.5q31 0 52 -21.5
t21 -51.5q0 -31 -21 -52t-52 -21q-30 0 -51.5 21t-21.5 52z" />
    <glyph glyph-name="perthousand" unicode="&#x2030;" horiz-adv-x="1167" 
d="M899 186q0 -176 74 -176t74 176t-74 176t-74 -176zM803 186q0 92 51 145q47 49 119 49t119 -49q51 -53 51 -145t-51 -145q-47 -49 -119 -49t-119 49q-51 53 -51 145zM119 492q0 -176 74 -176t74 176t-74 176t-74 -176zM23 492q0 92 51 145q47 49 119 49t119 -49
q51 -53 51 -145t-51 -145q-47 -49 -119 -49t-119 49q-51 53 -51 145zM429 186q0 92 51 145q47 49 119 49t119 -49q51 -53 51 -145t-51 -145q-47 -49 -119 -49t-119 49q-51 53 -51 145zM525 186q0 -176 74 -176t74 176t-74 176t-74 -176zM569 686h56l-410 -694h-56z" />
    <glyph glyph-name="guilsinglleft" unicode="&#x2039;" horiz-adv-x="333" 
d="M260 390v0l-102 -163l102 -163q10 -16 10 -20q0 -8 -8 -8q-6 0 -25 18l-156 149q-17 16 -17 24t17 24l156 149q19 18 25 18q8 0 8 -8q0 -5 -10 -20z" />
    <glyph glyph-name="guilsinglright" unicode="&#x203a;" horiz-adv-x="333" 
d="M73 64v0l102 163l-102 163q-10 16 -10 20q0 8 8 8q6 0 25 -18l156 -149q17 -16 17 -24t-17 -24l-156 -149q-19 -18 -25 -18q-8 0 -8 8q0 5 10 20z" />
    <glyph glyph-name="fraction" unicode="&#x2044;" horiz-adv-x="167" 
d="M-83 -8h-84l417 694h84z" />
    <glyph glyph-name="trademark" unicode="&#x2122;" horiz-adv-x="1000" 
d="M252 654v-305q0 -27 7 -34t43 -9v-24h-206v24q36 2 43 9t7 34v305h-44q-49 0 -62 -62h-24v86h366v-86h-24q-13 62 -63 62h-43zM654 282l-131 278h-2v-184q0 -42 8 -55t42 -15v-24h-132v24q34 2 42 15t8 55v226q-23 52 -69 52v24h148l131 -270l138 270h131v-24
q-34 -1 -42.5 -10t-8.5 -33v-262q0 -27 6.5 -34t42.5 -9v-24h-205v24q36 2 43 9t7 34v212h-2l-141 -279h-14z" />
    <glyph glyph-name="fi" unicode="&#xf001;" horiz-adv-x="611" 
d="M90 406h-62q49 41 89 139q45 112 68 142q52 65 149 65q61 0 100 -33q36 -31 36 -79q0 -26 -18.5 -45t-41.5 -19q-66 0 -66 61q0 12 4 30.5t4 26.5q0 34 -44 34q-92 0 -92 -148v-126h188q68 0 122 8v-382q0 -35 18 -48q9 -7 34 -10q18 -3 18 -12q0 -12 -12 -12
q-10 0 -50.5 1t-70.5 1t-70.5 -1t-50.5 -1q-12 0 -12 12q0 9 18 12q25 3 34 10q18 13 18 48v286q0 40 -34 40h-150v-326q0 -35 18 -48q9 -7 34 -10q18 -3 18 -12q0 -12 -12 -12q-10 0 -50.5 1t-70.5 1t-70.5 -1t-50.5 -1q-12 0 -12 12q0 9 18 12q25 3 34 10q18 13 18 48v326
z" />
    <glyph glyph-name="fl" unicode="&#xf002;" horiz-adv-x="611" 
d="M90 406h-62q48 40 87 137q45 113 68 143q51 66 147 66q72 0 124 -52l72 30v-650q0 -35 18 -48q9 -7 34 -10q18 -3 18 -12q0 -12 -12 -12q-10 0 -50.5 1t-70.5 1t-70.5 -1t-50.5 -1q-12 0 -12 12q0 9 18 12q25 3 34 10q18 13 18 48v496q-25 0 -40.5 16.5t-15.5 44.5
q0 12 4 30.5t4 26.5q0 34 -44 34q-92 0 -92 -148v-126h110l-14 -48h-96v-326q0 -35 18 -48q9 -7 34 -10q18 -3 18 -12q0 -12 -12 -12q-10 0 -50.5 1t-70.5 1t-70.5 -1t-50.5 -1q-12 0 -12 12q0 9 18 12q25 3 34 10q18 13 18 48v326z" />
    <glyph glyph-name="glyph232" horiz-adv-x="500" 
 />
    </font>
</defs>
</svg>
