<svg xmlns="http://www.w3.org/2000/svg" viewBox="0 0 700 700"><defs><style>.cls-1{fill:#fff;}</style></defs><title>grid</title><g id="Layer_1" data-name="Layer 1"><path class="cls-1" d="M201.89,275.38A42.87,42.87,0,0,1,159,318.26H75.52a42.87,42.87,0,0,1-42.89-42.89V191.89A42.87,42.87,0,0,1,75.52,149H159a42.87,42.87,0,0,1,42.89,42.89Z"/><path class="cls-1" d="M201.89,508.11A42.87,42.87,0,0,1,159,551H75.52a42.87,42.87,0,0,1-42.89-42.89V424.62a42.87,42.87,0,0,1,42.89-42.89H159a42.87,42.87,0,0,1,42.89,42.89Z"/><path class="cls-1" d="M434.63,275.38a42.87,42.87,0,0,1-42.89,42.89H308.26a42.87,42.87,0,0,1-42.89-42.89V191.89A42.87,42.87,0,0,1,308.26,149h83.49a42.87,42.87,0,0,1,42.89,42.89Z"/><path class="cls-1" d="M434.63,508.11A42.87,42.87,0,0,1,391.74,551H308.26a42.87,42.87,0,0,1-42.89-42.89V424.62a42.87,42.87,0,0,1,42.89-42.89h83.49a42.87,42.87,0,0,1,42.89,42.89Z"/><path class="cls-1" d="M667.37,275.38a42.87,42.87,0,0,1-42.89,42.89H541a42.88,42.88,0,0,1-42.91-42.89V191.89A42.87,42.87,0,0,1,541,149h83.47a42.88,42.88,0,0,1,42.91,42.89Z"/><path class="cls-1" d="M667.37,508.11A42.87,42.87,0,0,1,624.48,551H541a42.88,42.88,0,0,1-42.91-42.89V424.62A42.87,42.87,0,0,1,541,381.74h83.47a42.88,42.88,0,0,1,42.91,42.89Z"/></g></svg>